<?xml version="1.0" standalone="no"?>
<!DOCTYPE svg PUBLIC "-//W3C//DTD SVG 1.1//EN" "http://www.w3.org/Graphics/SVG/1.1/DTD/svg11.dtd" >
<svg xmlns="http://www.w3.org/2000/svg">
    <defs>
        <font id="Ubuntu-Light">
            <font-face font-family="Ubuntu-Light"
                       units-per-em="1000"
                       ascent="932"
                       descent="-189"
                       bbox="-157 -196 3521 958"
                    />
            <missing-glyph horiz-adv-x="0" />
            
            <glyph glyph-name="!" unicode="&#x21;" horiz-adv-x="192" d=" M172,500 Q172,457 170.5,419.5 Q169,382 166,347 Q163,312 159.5,279 Q156,246 152,213 L122,213 Q113,280 107.5,347 Q102,414 102,500 L102,693 L172,693 M192,43 Q192,20 177.5,4 Q163,-12 137,-12 Q111,-12 96.5,4 Q82,20 82,43 Q82,66 96.5,82 Q111,98 137,98 Q163,98 177.5,82 Q192,66 192,43"/> 
            <glyph glyph-name="&quot;" unicode="&#x22;" horiz-adv-x="308" d=" M308,760 L308,722 Q308,672 302.5,620.5 Q297,569 288,518 L255,518 Q247,569 241.5,620.5 Q236,672 236,723 L236,760 M156,760 L156,722 Q156,672 150.5,620.5 Q145,569 136,518 L103,518 Q95,569 89.5,620.5 Q84,672 84,723 L84,760"/> 
            <glyph glyph-name="#" unicode="&#x23;" horiz-adv-x="606" d=" M264,503 L449,503 L485,693 L546,693 L510,503 L606,503 L606,450 L499,450 L460,243 L606,243 L606,189 L450,189 L413,0 L352,0 L389,189 L204,189 L167,0 L106,0 L143,189 L47,189 L47,243 L153,243 L192,450 L47,450 L47,503 L203,503 L239,693 L300,693 M214,243 L399,243 L439,450 L254,450"/> 
            <glyph glyph-name="$" unicode="&#x24;" horiz-adv-x="487" d=" M314,-109 L255,-109 L255,20 Q187,21 142,34.5 Q97,48 75,61 L94,117 Q107,110 123,103 Q139,96 160,90 Q181,84 208.5,80.5 Q236,77 273,77 Q312,77 339.5,85 Q367,93 384.5,106.5 Q402,120 409.5,139 Q417,158 417,179 Q417,212 404.5,234 Q392,256 369.5,272.5 Q347,289 315,301.5 Q283,314 245,328 Q218,338 190,350.5 Q162,363 139.5,381.5 Q117,400 103,426.5 Q89,453 89,490 Q89,564 129.5,604.5 Q170,645 255,657 L255,776 L314,776 L314,660 Q361,659 396.5,650.5 Q432,642 456,632 L439,577 Q422,584 389,593.5 Q356,603 300,603 Q158,603 158,500 Q158,472 168,453.5 Q178,435 197,421 Q216,407 243,396 Q270,385 303,373 Q339,359 372.5,344.5 Q406,330 431.5,309 Q457,288 472,258 Q487,228 487,185 Q487,115 441,72 Q395,29 314,23"/> 
            <glyph glyph-name="%" unicode="&#x25;" horiz-adv-x="772" d=" M359,529 Q359,485 347,451.5 Q335,418 314,395.5 Q293,373 266,361.5 Q239,350 209,350 Q179,350 152,361.5 Q125,373 104,395.5 Q83,418 71,451.5 Q59,485 59,529 Q59,573 71,606.5 Q83,640 104,662.5 Q125,685 152,696.5 Q179,708 209,708 Q239,708 266,696.5 Q293,685 314,662.5 Q335,640 347,606.5 Q359,573 359,529 M300,529 Q300,586 277,620.5 Q254,655 209,655 Q164,655 141,620.5 Q118,586 118,529 Q118,472 141,437.5 Q164,403 209,403 Q254,403 277,437.5 Q300,472 300,529 M472,164 Q472,208 484,241.5 Q496,275 517,297.5 Q538,320 565,331.5 Q592,343 622,343 Q652,343 679,331.5 Q706,320 727,297.5 Q748,275 760,241.5 Q772,208 772,164 Q772,120 760,86.5 Q748,53 727,30.5 Q706,8 679,-3.5 Q652,-15 622,-15 Q592,-15 565,-3.5 Q538,8 517,30.5 Q496,53 484,86.5 Q472,120 472,164 M531,164 Q531,107 554,72.5 Q577,38 622,38 Q667,38 690,72.5 Q713,107 713,164 Q713,221 690,255.5 Q667,290 622,290 Q577,290 554,255.5 Q531,221 531,164 M580,693 L646,693 L251,0 L185,0"/> 
            <glyph glyph-name="&amp;" unicode="&#x26;" horiz-adv-x="638" d=" M486,178 Q507,213 520,254.5 Q533,296 538,338 L594,331 Q589,282 572,232 Q555,182 525,137 Q562,99 591.5,65 Q621,31 638,0 L565,0 Q551,23 531.5,45.5 Q512,68 489,91 Q447,46 391.5,18.5 Q336,-9 267,-9 Q206,-9 164.5,8.5 Q123,26 97.5,53.5 Q72,81 61,114 Q50,147 50,179 Q50,219 62.5,250.5 Q75,282 96,306.5 Q117,331 145,350 Q173,369 203,383 Q159,424 141.5,463 Q124,502 124,542 Q124,581 136.5,612 Q149,643 171.5,664.5 Q194,686 225,697 Q256,708 292,708 Q329,708 359,696.5 Q389,685 409,665.5 Q429,646 440,619 Q451,592 451,561 Q451,524 438,494.5 Q425,465 404,442 Q383,419 355.5,401 Q328,383 300,368 M267,48 Q325,48 370.5,70 Q416,92 450,130 L240,345 Q220,335 198.5,322 Q177,309 159.5,289.5 Q142,270 131,243 Q120,216 120,179 Q120,156 128,132.5 Q136,109 153,90.5 Q170,72 198,60 Q226,48 267,48 M389,560 Q389,599 362.5,625.5 Q336,652 294,652 Q243,652 216.5,624.5 Q190,597 190,549 Q190,514 205.5,479.5 Q221,445 265,405 Q319,431 354,466 Q389,501 389,560"/> 
            <glyph glyph-name="'" unicode="&#x27;" horiz-adv-x="156" d=" M156,760 L156,722 Q156,672 150.5,620.5 Q145,569 136,518 L103,518 Q95,569 89.5,620.5 Q84,672 84,723 L84,760"/> 
            <glyph glyph-name="(" unicode="&#x28;" horiz-adv-x="301" d=" M83,299 Q83,444 130.5,566 Q178,688 254,783 L301,751 Q222,653 185.5,543.5 Q149,434 149,299 Q149,164 185.5,54.5 Q222,-55 301,-153 L254,-185 Q178,-90 130.5,32 Q83,154 83,299"/> 
            <glyph glyph-name=")" unicode="&#x29;" horiz-adv-x="227" d=" M227,299 Q227,154 179.5,32 Q132,-90 56,-185 L9,-153 Q88,-55 124.5,54.5 Q161,164 161,299 Q161,434 124.5,543.5 Q88,653 9,751 L56,783 Q132,688 179.5,566 Q227,444 227,299"/> 
            <glyph glyph-name="*" unicode="&#x2A;" horiz-adv-x="433" d=" M260,488 Q294,454 321.5,426 Q349,398 379,358 L323,317 Q309,337 297.5,355.5 Q286,374 276,392.5 Q266,411 256.5,430.5 Q247,450 236,471 Q225,450 215.5,430.5 Q206,411 196,392.5 Q186,374 174.5,355.5 Q163,337 149,317 L93,358 Q108,378 122,394.5 Q136,411 150,426 Q164,441 179.5,456 Q195,471 212,488 Q165,495 125.5,502 Q86,509 39,524 L60,589 Q84,581 104,573 Q124,565 143,556 Q162,547 181,537.5 Q200,528 221,518 Q217,542 213.5,563 Q210,584 207.5,604.5 Q205,625 203.5,646.5 Q202,668 202,693 L270,693 Q270,668 268.5,646.5 Q267,625 264.5,604.5 Q262,584 258.5,563 Q255,542 251,518 Q272,528 291,537.5 Q310,547 329,556 Q348,565 368,573 Q388,581 412,589 L433,524 Q386,509 346.5,502 Q307,495 260,488"/> 
            <glyph glyph-name="+" unicode="&#x2B;" horiz-adv-x="508" d=" M56,317 L253,317 L253,534 L311,534 L311,317 L508,317 L508,261 L311,261 L311,43 L253,43 L253,261 L56,261"/> 
            <glyph glyph-name="," unicode="&#x2C;" horiz-adv-x="163" d=" M162,95 Q163,86 163,79 Q163,72 163,67 Q163,5 145.5,-52 Q128,-109 97,-159 L49,-137 Q72,-93 81.5,-44.5 Q91,4 91,56 Q91,68 90.5,76 Q90,84 89,95"/> 
            <glyph glyph-name="-" unicode="&#x2D;" horiz-adv-x="254" d=" M28,321 L254,321 L254,258 L28,258"/> 
            <glyph glyph-name="." unicode="&#x2E;" horiz-adv-x="178" d=" M178,43 Q178,20 163.5,4 Q149,-12 123,-12 Q97,-12 82.5,4 Q68,20 68,43 Q68,66 82.5,82 Q97,98 123,98 Q149,98 163.5,82 Q178,66 178,43"/> 
            <glyph glyph-name="/" unicode="&#x2F;" horiz-adv-x="382" d=" M43,-185 L-23,-185 L318,783 L382,783"/> 
            <glyph glyph-name="0" unicode="&#x30;" horiz-adv-x="505" d=" M59,346 Q59,522 117,615 Q175,708 282,708 Q388,708 446.5,615 Q505,522 505,346 Q505,171 446.5,78 Q388,-15 282,-15 Q176,-15 117.5,78 Q59,171 59,346 M434,346 Q434,406 426.5,460.5 Q419,515 401,557 Q383,599 354,624 Q325,649 282,649 Q238,649 209,624 Q180,599 162.5,557 Q145,515 137.5,460.5 Q130,406 130,346 Q130,286 137.5,231.5 Q145,177 162.5,135.5 Q180,94 209,69 Q238,44 282,44 Q325,44 354,69 Q383,94 401,135.5 Q419,177 426.5,231.5 Q434,286 434,346"/> 
            <glyph glyph-name="1" unicode="&#x31;" horiz-adv-x="353" d=" M107,551 Q167,572 214,604.5 Q261,637 307,693 L353,693 L353,0 L288,0 L288,594 Q277,582 259.5,569 Q242,556 220,543.5 Q198,531 174,519.5 Q150,508 126,501"/> 
            <glyph glyph-name="2" unicode="&#x32;" horiz-adv-x="480" d=" M456,521 Q456,482 442,447.5 Q428,413 404.5,381 Q381,349 351,319 Q321,289 290,259 Q264,234 239.5,208.5 Q215,183 195.5,157.5 Q176,132 164.5,107.5 Q153,83 153,59 L153,57 L480,57 L480,0 L81,0 Q81,2 80.5,7.5 Q80,13 80,24 Q80,71 97,111.5 Q114,152 140.5,188 Q167,224 199.5,255 Q232,286 262,315 Q287,339 309.5,361.5 Q332,384 349,408 Q366,432 376,459 Q386,486 386,518 Q386,588 348.5,618.5 Q311,649 254,649 Q222,649 197,641 Q172,633 153.5,622.5 Q135,612 122,601 Q109,590 103,584 L69,629 Q75,636 90.5,649.5 Q106,663 129.5,676 Q153,689 184,698.5 Q215,708 253,708 Q354,708 405,658.5 Q456,609 456,521"/> 
            <glyph glyph-name="3" unicode="&#x33;" horiz-adv-x="482" d=" M235,45 Q330,45 371,84.5 Q412,124 412,191 Q412,235 395.5,264 Q379,293 350.5,310.5 Q322,328 284.5,335.5 Q247,343 205,343 L195,343 L195,397 L218,397 Q245,397 273.5,402.5 Q302,408 325.5,423 Q349,438 364.5,463 Q380,488 380,527 Q380,560 369,583.5 Q358,607 339.5,621 Q321,635 296.5,641.5 Q272,648 245,648 Q191,648 161,633 Q131,618 112,605 L84,656 Q94,663 109.5,672 Q125,681 146,689 Q167,697 192.5,702.5 Q218,708 248,708 Q300,708 337.5,695 Q375,682 400,658.5 Q425,635 437,602.5 Q449,570 449,532 Q449,471 416.5,432.5 Q384,394 333,377 Q361,370 387.5,355.5 Q414,341 435,318.5 Q456,296 469,264 Q482,232 482,189 Q482,145 466.5,108 Q451,71 420.5,43.5 Q390,16 343,0.5 Q296,-15 233,-15 Q200,-15 172.5,-10.5 Q145,-6 124,0 Q103,6 88.5,12 Q74,18 67,22 L84,80 Q90,76 104,70 Q118,64 137.5,58.5 Q157,53 181.5,49 Q206,45 235,45"/> 
            <glyph glyph-name="4" unicode="&#x34;" horiz-adv-x="514" d=" M50,228 Q68,276 100.5,336 Q133,396 174,459 Q215,522 263,582.5 Q311,643 360,693 L428,693 L428,241 L514,241 L514,188 L428,188 L428,0 L364,0 L364,188 L50,188 M364,241 L364,620 Q329,584 293,537 Q257,490 224.5,439.5 Q192,389 164,338 Q136,287 117,241"/> 
            <glyph glyph-name="5" unicode="&#x35;" horiz-adv-x="483" d=" M239,45 Q289,45 322.5,56.5 Q356,68 376,88 Q396,108 404.5,134.5 Q413,161 413,192 Q413,232 400,264 Q387,296 354,318 Q321,340 265,351.5 Q209,363 123,363 Q129,414 133,456.5 Q137,499 140,538.5 Q143,578 144.5,615.5 Q146,653 147,693 L459,693 L459,636 L204,636 Q203,617 201,587 Q199,557 197,525.5 Q195,494 192,465 Q189,436 187,419 Q264,417 320,400 Q376,383 412,354 Q448,325 465.5,284 Q483,243 483,193 Q483,149 468.5,111 Q454,73 424,45 Q394,17 348,1 Q302,-15 239,-15 Q207,-15 179.5,-10.5 Q152,-6 130.5,0 Q109,6 94,12 Q79,18 72,22 L89,80 Q95,76 109.5,70 Q124,64 143.5,58.5 Q163,53 187.5,49 Q212,45 239,45"/> 
            <glyph glyph-name="6" unicode="&#x36;" horiz-adv-x="504" d=" M77,275 Q77,478 174.5,583 Q272,688 458,696 L462,641 Q401,637 349.5,622.5 Q298,608 258,577.5 Q218,547 191,499 Q164,451 154,381 Q181,395 219,405.5 Q257,416 300,416 Q356,416 395,398.5 Q434,381 458,352 Q482,323 493,285 Q504,247 504,205 Q504,166 492,127 Q480,88 454.5,56.5 Q429,25 390.5,5 Q352,-15 299,-15 Q190,-15 133.5,61.5 Q77,138 77,275 M294,359 Q248,359 213.5,348.5 Q179,338 149,324 Q147,307 147,297.5 Q147,288 147,274 Q147,227 153.5,185 Q160,143 177.5,111 Q195,79 224,60.5 Q253,42 298,42 Q335,42 361,55.5 Q387,69 403,91 Q419,113 426.5,142 Q434,171 434,203 Q434,283 398.5,321 Q363,359 294,359"/> 
            <glyph glyph-name="7" unicode="&#x37;" horiz-adv-x="490" d=" M175,0 Q181,83 205.5,176 Q230,269 265.5,356 Q301,443 342.5,516 Q384,589 423,633 L69,633 L69,693 L490,693 L490,635 Q456,594 415.5,525.5 Q375,457 339,371.5 Q303,286 276.5,190 Q250,94 244,0"/> 
            <glyph glyph-name="8" unicode="&#x38;" horiz-adv-x="498" d=" M282,-15 Q233,-15 193.5,-1 Q154,13 125.5,38.5 Q97,64 81.5,98.5 Q66,133 66,174 Q66,209 76,237.5 Q86,266 102.5,288.5 Q119,311 140.5,328.5 Q162,346 186,359 Q125,389 103,430 Q81,471 81,519 Q81,562 96,597 Q111,632 137.5,656.5 Q164,681 201,694.5 Q238,708 282,708 Q334,708 372,692.5 Q410,677 434.5,652 Q459,627 470.5,595 Q482,563 482,529 Q482,496 472,468.5 Q462,441 446,418.5 Q430,396 410,379 Q390,362 371,350 Q441,320 469.5,275 Q498,230 498,180 Q498,137 482.5,101 Q467,65 439,39.5 Q411,14 371,-0.5 Q331,-15 282,-15 M429,174 Q429,217 412.5,244 Q396,271 369.5,288 Q343,305 309.5,315 Q276,325 242,336 Q191,312 163,271.5 Q135,231 135,174 Q135,146 144,122 Q153,98 171.5,80 Q190,62 217.5,51.5 Q245,41 282,41 Q319,41 346.5,51.5 Q374,62 392.5,80 Q411,98 420,122 Q429,146 429,174 M149,526 Q149,498 155.5,475 Q162,452 180,433.5 Q198,415 230,399.5 Q262,384 314,370 Q360,396 387,434 Q414,472 414,529 Q414,552 406.5,574 Q399,596 383.5,613.5 Q368,631 343,641.5 Q318,652 282,652 Q249,652 224,642 Q199,632 182.5,614.5 Q166,597 157.5,574 Q149,551 149,526"/> 
            <glyph glyph-name="9" unicode="&#x39;" horiz-adv-x="490" d=" M490,418 Q490,209 390,103.5 Q290,-2 98,-2 L96,52 Q162,52 217,67 Q272,82 312.5,113.5 Q353,145 378.5,194.5 Q404,244 413,314 Q386,300 348,289.5 Q310,279 267,279 Q211,279 172,296.5 Q133,314 109,343 Q85,372 74,410 Q63,448 63,489 Q63,527 75,566 Q87,605 112.5,636.5 Q138,668 176.5,688 Q215,708 268,708 Q377,708 433.5,631.5 Q490,555 490,418 M273,336 Q319,336 353.5,346.5 Q388,357 418,371 Q419,383 419.5,394 Q420,405 420,419 Q420,466 413.5,508 Q407,550 389.5,582 Q372,614 343,632.5 Q314,651 269,651 Q232,651 206,637.5 Q180,624 164,602 Q148,580 140.5,551 Q133,522 133,491 Q133,412 168.5,374 Q204,336 273,336"/> 
            <glyph glyph-name=":" unicode="&#x3A;" horiz-adv-x="178" d=" M178,43 Q178,20 163.5,4 Q149,-12 123,-12 Q97,-12 82.5,4 Q68,20 68,43 Q68,66 82.5,82 Q97,98 123,98 Q149,98 163.5,82 Q178,66 178,43 M178,462 Q178,439 163.5,423 Q149,407 123,407 Q97,407 82.5,423 Q68,439 68,462 Q68,485 82.5,501 Q97,517 123,517 Q149,517 163.5,501 Q178,485 178,462"/> 
            <glyph glyph-name=";" unicode="&#x3B;" horiz-adv-x="178" d=" M162,95 Q163,86 163,79 Q163,72 163,67 Q163,5 145.5,-52 Q128,-109 97,-159 L49,-137 Q72,-93 81.5,-44.5 Q91,4 91,56 Q91,68 90.5,76 Q90,84 89,95 M178,462 Q178,439 163.5,423 Q149,407 123,407 Q97,407 82.5,423 Q68,439 68,462 Q68,485 82.5,501 Q97,517 123,517 Q149,517 163.5,501 Q178,485 178,462"/> 
            <glyph glyph-name="&lt;" unicode="&#x3C;" horiz-adv-x="508" d=" M131,288 L508,130 L488,75 L55,259 L55,317 L488,501 L508,446"/> 
            <glyph glyph-name="=" unicode="&#x3D;" horiz-adv-x="508" d=" M56,212 L508,212 L508,156 L56,156 M56,422 L508,422 L508,366 L56,366"/> 
            <glyph glyph-name="&gt;" unicode="&#x3E;" horiz-adv-x="508" d=" M55,446 L75,501 L508,317 L508,259 L75,75 L55,130 L432,288"/> 
            <glyph glyph-name="?" unicode="&#x3F;" horiz-adv-x="352" d=" M161,650 Q94,650 39,620 L20,674 Q41,686 80.5,697 Q120,708 168,708 Q221,708 256.5,694.5 Q292,681 313,659.5 Q334,638 343,611 Q352,584 352,558 Q352,522 339,494 Q326,466 306,442 Q286,418 263.5,396 Q241,374 221,350.5 Q201,327 188,300 Q175,273 175,240 Q175,229 175,223.5 Q175,218 176,213 L124,213 Q122,223 121,234.5 Q120,246 120,258 Q120,292 132,318.5 Q144,345 162,368 Q180,391 201,411.5 Q222,432 240,453.5 Q258,475 270,499.5 Q282,524 282,555 Q282,583 272,601.5 Q262,620 245.5,631 Q229,642 207,646 Q185,650 161,650 M210,43 Q210,20 195.5,4 Q181,-12 155,-12 Q129,-12 114.5,4 Q100,20 100,43 Q100,66 114.5,82 Q129,98 155,98 Q181,98 195.5,82 Q210,66 210,43"/> 
            <glyph glyph-name="@" unicode="&#x40;" horiz-adv-x="868" d=" M687,58 Q655,58 635.5,69 Q616,80 607,93 Q589,81 558,69 Q527,57 490,57 Q444,57 405.5,70.5 Q367,84 338.5,111.5 Q310,139 294,181 Q278,223 278,280 Q278,327 292.5,368 Q307,409 334.5,439.5 Q362,470 402.5,487.5 Q443,505 495,505 Q543,505 581.5,496.5 Q620,488 642,479 L642,186 Q642,147 655.5,130 Q669,113 691,113 Q725,113 746.5,134.5 Q768,156 780.5,188.5 Q793,221 798,257.5 Q803,294 803,324 Q803,389 781,448 Q759,507 717.5,551.5 Q676,596 616,622.5 Q556,649 480,649 Q403,649 340,624.5 Q277,600 232,553 Q187,506 162,437.5 Q137,369 137,281 Q137,188 164.5,118 Q192,48 240,1 Q288,-46 353.5,-69.5 Q419,-93 495,-93 Q553,-93 586.5,-87.5 Q620,-82 631,-78 L638,-133 Q621,-138 581,-144 Q541,-150 495,-150 Q408,-150 331,-124.5 Q254,-99 196.5,-45.5 Q139,8 105.5,89 Q72,170 72,281 Q72,388 104,468 Q136,548 191.5,601 Q247,654 321.5,680 Q396,706 480,706 Q560,706 630.5,679 Q701,652 754,602 Q807,552 837.5,481 Q868,410 868,322 Q868,257 854,207.5 Q840,158 815.5,125 Q791,92 758,75 Q725,58 687,58 M486,111 Q520,111 541,116.5 Q562,122 585,136 Q581,146 579.5,161.5 Q578,177 578,188 L578,442 Q570,444 552,447.5 Q534,451 502,451 Q464,451 434.5,438.5 Q405,426 385,403.5 Q365,381 355,349.5 Q345,318 345,281 Q345,237 356,205 Q367,173 386,152 Q405,131 431,121 Q457,111 486,111"/> 
            <glyph glyph-name="A" unicode="&#x41;" horiz-adv-x="631" d=" M556,0 Q537,51 520,98 Q503,145 487,190 L150,190 Q133,145 116,98 Q99,51 81,0 L10,0 Q50,108 85,201.5 Q120,295 153.5,378.5 Q187,462 220,539 Q253,616 290,693 L350,693 Q387,616 420,539 Q453,462 486.5,378.5 Q520,295 555,201.5 Q590,108 631,0 M318,615 Q280,529 244.5,440 Q209,351 171,248 L466,248 Q428,351 392,440 Q356,529 318,615"/> 
            <glyph glyph-name="B" unicode="&#x42;" horiz-adv-x="575" d=" M256,-6 Q239,-6 216.5,-4.5 Q194,-3 170.5,-0.5 Q147,2 126,5.5 Q105,9 90,13 L90,680 Q108,685 130,688.5 Q152,692 175.5,694.5 Q199,697 221.5,698 Q244,699 263,699 Q319,699 369.5,690 Q420,681 458,660 Q496,639 518.5,604.5 Q541,570 541,519 Q541,463 512.5,423.5 Q484,384 436,369 Q466,362 491,349 Q516,336 535,315.5 Q554,295 564.5,265.5 Q575,236 575,195 Q575,97 497,45.5 Q419,-6 256,-6 M158,332 L158,59 Q173,57 203,54.5 Q233,52 264,52 Q310,52 353.5,58 Q397,64 430,80 Q463,96 483,124 Q503,152 503,196 Q503,236 489,262.5 Q475,289 449,304.5 Q423,320 385.5,326 Q348,332 302,332 M158,390 L290,390 Q327,390 360,395.5 Q393,401 417.5,415.5 Q442,430 456,454.5 Q470,479 470,517 Q470,551 455,574.5 Q440,598 412.5,613 Q385,628 347,634.5 Q309,641 263,641 Q226,641 200.5,639 Q175,637 158,634"/> 
            <glyph glyph-name="C" unicode="&#x43;" horiz-adv-x="581" d=" M378,-15 Q311,-15 253.5,9 Q196,33 153.5,79 Q111,125 86.5,192.5 Q62,260 62,347 Q62,434 88.5,501.5 Q115,569 159,615 Q203,661 261,684.5 Q319,708 382,708 Q421,708 453,703 Q485,698 509,690.5 Q533,683 550,675.5 Q567,668 576,662 L554,603 Q529,618 490.5,632.5 Q452,647 395,647 Q330,647 281.5,625 Q233,603 200,563 Q167,523 150.5,468 Q134,413 134,346 Q134,277 150.5,221.5 Q167,166 199,127 Q231,88 277.5,67 Q324,46 384,46 Q450,46 494.5,58.5 Q539,71 562,84 L581,26 Q574,21 557,14.5 Q540,8 514,1 Q488,-6 454,-10.5 Q420,-15 378,-15"/> 
            <glyph glyph-name="D" unicode="&#x44;" horiz-adv-x="640" d=" M640,347 Q640,258 612,192 Q584,126 533.5,82 Q483,38 413,16 Q343,-6 259,-6 Q217,-6 171,-1.5 Q125,3 90,12 L90,680 Q125,690 171,694.5 Q217,699 259,699 Q343,699 413,677 Q483,655 533.5,611 Q584,567 612,501 Q640,435 640,347 M158,60 Q164,59 188.5,56 Q213,53 267,53 Q342,53 398,73.5 Q454,94 492,132 Q530,170 549,224.5 Q568,279 568,347 Q568,415 549,469 Q530,523 492,561 Q454,599 398,619.5 Q342,640 267,640 Q213,640 188.5,637 Q164,634 158,633"/> 
            <glyph glyph-name="E" unicode="&#x45;" horiz-adv-x="516" d=" M90,0 L90,693 L490,693 L490,634 L158,634 L158,393 L454,393 L454,335 L158,335 L158,59 L516,59 L516,0"/> 
            <glyph glyph-name="F" unicode="&#x46;" horiz-adv-x="485" d=" M90,0 L90,693 L485,693 L485,634 L158,634 L158,390 L448,390 L448,331 L158,331 L158,0"/> 
            <glyph glyph-name="G" unicode="&#x47;" horiz-adv-x="590" d=" M522,328 L590,328 L590,19 Q571,11 515.5,-1.5 Q460,-14 379,-14 Q311,-14 253,10 Q195,34 152.5,79.5 Q110,125 86,192.5 Q62,260 62,347 Q62,434 88,501.5 Q114,569 158.5,614.5 Q203,660 262,684 Q321,708 388,708 Q465,708 515,691.5 Q565,675 588,660 L565,602 Q537,622 489,634.5 Q441,647 385,647 Q333,647 287,628 Q241,609 207,571 Q173,533 153.5,477 Q134,421 134,347 Q134,278 150,222.5 Q166,167 198.5,127.5 Q231,88 279,67 Q327,46 390,46 Q441,46 475.5,51.5 Q510,57 522,62"/> 
            <glyph glyph-name="H" unicode="&#x48;" horiz-adv-x="602" d=" M534,693 L602,693 L602,0 L534,0 L534,333 L158,333 L158,0 L90,0 L90,693 L158,693 L158,392 L534,392"/> 
            <glyph glyph-name="I" unicode="&#x49;" horiz-adv-x="158" d=" M90,693 L158,693 L158,0 L90,0"/> 
            <glyph glyph-name="J" unicode="&#x4A;" horiz-adv-x="400" d=" M400,218 Q400,168 390,125.5 Q380,83 355.5,51.5 Q331,20 290.5,2.5 Q250,-15 189,-15 Q153,-15 123,-8.5 Q93,-2 70,7 Q47,16 31.5,26 Q16,36 8,44 L40,99 Q49,91 62.5,81.5 Q76,72 94,64 Q112,56 134,51 Q156,46 182,46 Q259,46 295.5,86.5 Q332,127 332,225 L332,693 L400,693"/> 
            <glyph glyph-name="K" unicode="&#x4B;" horiz-adv-x="589" d=" M513,0 Q479,52 436.5,103 Q394,154 347,199 Q300,244 251.5,281 Q203,318 158,343 L158,0 L90,0 L90,693 L158,693 L158,370 Q196,404 242.5,448.5 Q289,493 334.5,538 Q380,583 420,624 Q460,665 484,693 L566,693 Q537,662 496,619.5 Q455,577 409,532 Q363,487 317.5,443.5 Q272,400 236,367 Q265,349 298.5,322.5 Q332,296 366.5,264.5 Q401,233 434.5,198.5 Q468,164 497.5,129 Q527,94 550.5,61 Q574,28 589,0"/> 
            <glyph glyph-name="L" unicode="&#x4C;" horiz-adv-x="484" d=" M484,59 L484,0 L90,0 L90,693 L158,693 L158,59"/> 
            <glyph glyph-name="M" unicode="&#x4D;" horiz-adv-x="792" d=" M401,100 Q391,125 372.5,166 Q354,207 331,255.5 Q308,304 284,355.5 Q260,407 238,452 Q216,497 199,531 Q182,565 174,579 Q161,454 153.5,307.5 Q146,161 140,0 L73,0 Q82,189 93.5,362 Q105,535 122,693 L182,693 Q212,643 246,577.5 Q280,512 313.5,441.5 Q347,371 378.5,302.5 Q410,234 434,179 Q458,234 489.5,302.5 Q521,371 554.5,441.5 Q588,512 622,577.5 Q656,643 686,693 L743,693 Q760,535 771.5,362 Q783,189 792,0 L723,0 Q717,161 709.5,307.5 Q702,454 689,579 Q681,565 664,531 Q647,497 625,452 Q603,407 579,355.5 Q555,304 532,255.5 Q509,207 490.5,166 Q472,125 462,100"/> 
            <glyph glyph-name="N" unicode="&#x4E;" horiz-adv-x="619" d=" M562,0 Q543,35 513.5,82 Q484,129 449,182.5 Q414,236 375,292.5 Q336,349 297.5,402.5 Q259,456 222.5,503 Q186,550 157,584 L157,0 L90,0 L90,693 L144,693 Q195,636 253.5,561.5 Q312,487 368,409.5 Q424,332 472.5,258 Q521,184 552,129 L552,693 L619,693 L619,0"/> 
            <glyph glyph-name="O" unicode="&#x4F;" horiz-adv-x="712" d=" M712,347 Q712,258 686,190 Q660,122 615.5,76.5 Q571,31 512,8 Q453,-15 387,-15 Q321,-15 262,8 Q203,31 158.5,76.5 Q114,122 88,190 Q62,258 62,347 Q62,436 88,503.5 Q114,571 158.5,616.5 Q203,662 262,685 Q321,708 387,708 Q453,708 512,685 Q571,662 615.5,616.5 Q660,571 686,503.5 Q712,436 712,347 M640,347 Q640,417 622,472.5 Q604,528 571,567 Q538,606 491.5,626.5 Q445,647 387,647 Q329,647 282.5,626.5 Q236,606 203,567 Q170,528 152,472.5 Q134,417 134,347 Q134,277 152,221.5 Q170,166 203,127 Q236,88 282.5,67 Q329,46 387,46 Q445,46 491.5,67 Q538,88 571,127 Q604,166 622,221.5 Q640,277 640,347"/> 
            <glyph glyph-name="P" unicode="&#x50;" horiz-adv-x="556" d=" M265,699 Q412,699 484,643 Q556,587 556,484 Q556,425 535,383.5 Q514,342 475,316.5 Q436,291 379.5,279.5 Q323,268 252,268 L158,268 L158,0 L90,0 L90,680 Q126,690 174.5,694.5 Q223,699 265,699 M268,640 Q230,640 203.5,637.5 Q177,635 158,633 L158,327 L244,327 Q299,327 343.5,333.5 Q388,340 419.5,357.5 Q451,375 468,406 Q485,437 485,485 Q485,531 466.5,561 Q448,591 417.5,608.5 Q387,626 348,633 Q309,640 268,640"/> 
            <glyph glyph-name="Q" unicode="&#x51;" horiz-adv-x="712" d=" M712,347 Q712,267 691,205 Q670,143 634,98 Q598,53 549,26 Q500,-1 444,-10 Q448,-38 469.5,-58 Q491,-78 521.5,-92 Q552,-106 589,-114.5 Q626,-123 661,-128 L647,-185 Q609,-178 565,-167.5 Q521,-157 481.5,-138 Q442,-119 413,-89.5 Q384,-60 375,-15 Q311,-13 254,11 Q197,35 154.5,80.5 Q112,126 87,193 Q62,260 62,347 Q62,436 88,503.5 Q114,571 158.5,616.5 Q203,662 262,685 Q321,708 387,708 Q453,708 512,685 Q571,662 615.5,616.5 Q660,571 686,503.5 Q712,436 712,347 M640,347 Q640,417 622,472.5 Q604,528 571,567 Q538,606 491.5,626.5 Q445,647 387,647 Q329,647 282.5,626.5 Q236,606 203,567 Q170,528 152,472.5 Q134,417 134,347 Q134,277 152,221.5 Q170,166 203,127 Q236,88 282.5,67 Q329,46 387,46 Q445,46 491.5,67 Q538,88 571,127 Q604,166 622,221.5 Q640,277 640,347"/> 
            <glyph glyph-name="R" unicode="&#x52;" horiz-adv-x="594" d=" M552,485 Q552,407 511,362 Q470,317 403,297 Q419,277 444.5,243 Q470,209 497,168.5 Q524,128 550,84 Q576,40 594,0 L521,0 Q500,40 475.5,80 Q451,120 425.5,157.5 Q400,195 376,227 Q352,259 334,283 Q302,280 270,280 L158,280 L158,0 L90,0 L90,680 Q126,690 174.5,694.5 Q223,699 264,699 Q407,699 479.5,645 Q552,591 552,485 M272,640 Q234,640 205.5,637.5 Q177,635 158,633 L158,338 L252,338 Q299,338 341,342.5 Q383,347 414,362.5 Q445,378 463,407 Q481,436 481,486 Q481,532 463,562 Q445,592 416,609.5 Q387,627 349.5,633.5 Q312,640 272,640"/> 
            <glyph glyph-name="S" unicode="&#x53;" horiz-adv-x="481" d=" M239,44 Q320,44 365,73.5 Q410,103 410,169 Q410,207 395.5,232.5 Q381,258 357,275.5 Q333,293 302,305.5 Q271,318 237,332 Q194,349 160,367 Q126,385 102,407.5 Q78,430 65.5,459 Q53,488 53,527 Q53,616 112,662 Q171,708 276,708 Q304,708 331,704 Q358,700 381.5,693.5 Q405,687 424.5,679 Q444,671 457,662 L433,605 Q404,625 362.5,637 Q321,649 273,649 Q240,649 212.5,642.5 Q185,636 165,621.5 Q145,607 133.5,585 Q122,563 122,532 Q122,500 134,478 Q146,456 167.5,440 Q189,424 218,411 Q247,398 281,384 Q322,367 358.5,350 Q395,333 422,310 Q449,287 465,254 Q481,221 481,173 Q481,79 415.5,32 Q350,-15 238,-15 Q198,-15 165,-10 Q132,-5 106,2.5 Q80,10 62,18 Q44,26 34,32 L56,91 Q66,85 83,77 Q100,69 123,61.5 Q146,54 175,49 Q204,44 239,44"/> 
            <glyph glyph-name="T" unicode="&#x54;" horiz-adv-x="530" d=" M530,693 L530,634 L308,634 L308,0 L240,0 L240,634 L18,634 L18,693"/> 
            <glyph glyph-name="U" unicode="&#x55;" horiz-adv-x="593" d=" M340,-15 Q271,-15 222.5,6 Q174,27 144,64 Q114,101 100.5,150.5 Q87,200 87,257 L87,693 L155,693 L155,266 Q155,209 168.5,167.5 Q182,126 206,99 Q230,72 264,59 Q298,46 340,46 Q382,46 416,59 Q450,72 474,99 Q498,126 511.5,167.5 Q525,209 525,266 L525,693 L593,693 L593,257 Q593,200 579.5,150.5 Q566,101 536,64 Q506,27 457.5,6 Q409,-15 340,-15"/> 
            <glyph glyph-name="V" unicode="&#x56;" horiz-adv-x="614" d=" M86,693 Q116,604 144,524.5 Q172,445 199,370.5 Q226,296 254,224.5 Q282,153 314,80 Q345,152 373.5,223.5 Q402,295 429.5,369.5 Q457,444 484.5,524 Q512,604 542,693 L614,693 Q568,562 531.5,463 Q495,364 463.5,284 Q432,204 403.5,136.5 Q375,69 344,0 L281,0 Q250,69 221,136.5 Q192,204 160.5,284 Q129,364 92.5,463 Q56,562 10,693"/> 
            <glyph glyph-name="W" unicode="&#x57;" horiz-adv-x="885" d=" M491,608 Q539,447 587.5,316.5 Q636,186 682,77 Q717,195 751.5,355 Q786,515 818,693 L885,693 Q867,586 848.5,492.5 Q830,399 810,314.5 Q790,230 768,152.5 Q746,75 720,0 L647,0 Q623,57 599.5,114 Q576,171 553,231.5 Q530,292 507,358 Q484,424 460,498 Q436,424 412.5,358 Q389,292 366,231.5 Q343,171 319.5,114 Q296,57 272,0 L200,0 Q173,75 150.5,152.5 Q128,230 108.5,314.5 Q89,399 71.5,492.5 Q54,586 36,693 L106,693 Q121,605 137,520.5 Q153,436 170.5,357 Q188,278 206.5,207.5 Q225,137 243,77 Q286,188 335,317.5 Q384,447 432,608"/> 
            <glyph glyph-name="X" unicode="&#x58;" horiz-adv-x="578" d=" M490,693 L566,693 L343,368 Q408,276 470,183.5 Q532,91 578,0 L504,0 Q489,30 465.5,69 Q442,108 414.5,151 Q387,194 357.5,237 Q328,280 301,318 Q274,280 244.5,237 Q215,194 187.5,151 Q160,108 136.5,69 Q113,30 98,0 L27,0 Q73,91 135,183 Q197,275 261,366 L38,693 L116,693 L303,414"/> 
            <glyph glyph-name="Y" unicode="&#x59;" horiz-adv-x="559" d=" M251,0 L251,285 Q180,394 120.5,495.5 Q61,597 10,693 L89,693 Q131,605 181.5,514.5 Q232,424 287,342 Q340,424 391,514.5 Q442,605 485,693 L559,693 Q506,598 447,495.5 Q388,393 319,287 L319,0"/> 
            <glyph glyph-name="Z" unicode="&#x5A;" horiz-adv-x="520" d=" M510,631 Q486,603 454.5,563 Q423,523 387,475.5 Q351,428 313.5,374.5 Q276,321 239.5,266.5 Q203,212 170.5,159 Q138,106 112,59 L520,59 L520,0 L38,0 L38,51 Q60,94 90.5,145.5 Q121,197 156,251.5 Q191,306 229,361 Q267,416 304,466.5 Q341,517 374.5,560 Q408,603 436,634 L57,634 L57,693 L510,693"/> 
            <glyph glyph-name="[" unicode="&#x5B;" horiz-adv-x="302" d=" M100,783 L302,783 L302,733 L162,733 L162,-135 L302,-135 L302,-185 L100,-185"/> 
            <glyph glyph-name="\" unicode="&#x5C;" horiz-adv-x="382" d=" M-23,783 L41,783 L382,-185 L316,-185"/> 
            <glyph glyph-name="]" unicode="&#x5D;" horiz-adv-x="210" d=" M210,-185 L8,-185 L8,-135 L148,-135 L148,733 L8,733 L8,783 L210,783"/> 
            <glyph glyph-name="^" unicode="&#x5E;" horiz-adv-x="502" d=" M502,356 L453,330 L282,638 L111,330 L62,356 L250,693 L314,693"/> 
            <glyph glyph-name="_" unicode="&#x5F;" horiz-adv-x="495" d=" M-5,-129 L495,-129 L495,-185 L-5,-185"/> 
            <glyph glyph-name="`" unicode="&#x60;" horiz-adv-x="264" d=" M106,773 L264,621 L231,583 L60,722"/> 
            <glyph glyph-name="a" unicode="&#x61;" horiz-adv-x="429" d=" M249,47 Q287,47 315.5,49.5 Q344,52 364,56 L364,238 Q353,243 329,248.5 Q305,254 263,254 Q239,254 213,250.5 Q187,247 165,235.5 Q143,224 129,204 Q115,184 115,151 Q115,122 124.5,102 Q134,82 151.5,70 Q169,58 193.5,52.5 Q218,47 249,47 M243,529 Q294,529 329.5,514.5 Q365,500 387,474.5 Q409,449 419,414 Q429,379 429,338 L429,12 Q419,9 400,5.5 Q381,2 356,-2 Q331,-6 300.5,-8.5 Q270,-11 238,-11 Q197,-11 162.5,-2 Q128,7 102.5,26.5 Q77,46 62.5,76.5 Q48,107 48,151 Q48,193 64,223 Q80,253 109,272.5 Q138,292 178,301 Q218,310 265,310 Q279,310 294.5,308.5 Q310,307 324.5,304.5 Q339,302 349.5,299.5 Q360,297 364,295 L364,327 Q364,354 360,379.5 Q356,405 342.5,425.5 Q329,446 304.5,458.5 Q280,471 240,471 Q183,471 155,463 Q127,455 114,450 L105,507 Q122,515 157.5,522 Q193,529 243,529"/> 
            <glyph glyph-name="b" unicode="&#x62;" horiz-adv-x="528" d=" M151,486 Q168,499 205.5,513.5 Q243,528 294,528 Q350,528 393.5,508 Q437,488 467,452 Q497,416 512.5,366.5 Q528,317 528,258 Q528,195 509.5,145 Q491,95 457.5,60 Q424,25 377.5,6.5 Q331,-12 274,-12 Q205,-12 160,-3 Q115,6 86,16 L86,764 L151,776 M151,61 Q166,56 195.5,51.5 Q225,47 273,47 Q357,47 408,101.5 Q459,156 459,258 Q459,301 450,339.5 Q441,378 421,406.5 Q401,435 368.5,452 Q336,469 288,469 Q265,469 244,464.5 Q223,460 205,453 Q187,446 173.5,438 Q160,430 151,423"/> 
            <glyph glyph-name="c" unicode="&#x63;" horiz-adv-x="437" d=" M300,-11 Q240,-11 194,8 Q148,27 117.5,62.5 Q87,98 71,147.5 Q55,197 55,257 Q55,318 71.5,368 Q88,418 119,454 Q150,490 194,509.5 Q238,529 293,529 Q335,529 371.5,522 Q408,515 428,504 L411,448 Q391,458 366,464 Q341,470 299,470 Q213,470 168.5,414.5 Q124,359 124,257 Q124,211 134,172.5 Q144,134 166.5,106.5 Q189,79 224.5,63.5 Q260,48 311,48 Q353,48 381.5,57.5 Q410,67 423,74 L437,18 Q419,8 380.5,-1.5 Q342,-11 300,-11"/> 
            <glyph glyph-name="d" unicode="&#x64;" horiz-adv-x="497" d=" M497,16 Q468,6 423,-3 Q378,-12 309,-12 Q252,-12 205.5,6.5 Q159,25 125.5,60 Q92,95 73.5,145 Q55,195 55,258 Q55,317 70.5,366.5 Q86,416 116,452 Q146,488 189.5,508 Q233,528 289,528 Q340,528 377.5,513.5 Q415,499 432,486 L432,764 L497,776 M432,423 Q423,430 409.5,438 Q396,446 378,453 Q360,460 339,464.5 Q318,469 295,469 Q247,469 214.5,452 Q182,435 162,406.5 Q142,378 133,339.5 Q124,301 124,258 Q124,156 175,101.5 Q226,47 310,47 Q358,47 387.5,51.5 Q417,56 432,61"/> 
            <glyph glyph-name="e" unicode="&#x65;" horiz-adv-x="489" d=" M55,259 Q55,327 74.5,377.5 Q94,428 125.5,462 Q157,496 197.5,512.5 Q238,529 281,529 Q376,529 432.5,467 Q489,405 489,276 Q489,268 488.5,260 Q488,252 487,245 L124,245 Q127,150 171,99 Q215,48 311,48 Q364,48 395,58 Q426,68 440,75 L452,19 Q438,11 399.5,0 Q361,-11 309,-11 Q241,-11 193,9 Q145,29 114,65 Q83,101 69,150.5 Q55,200 55,259 M422,300 Q420,381 384,426 Q348,471 282,471 Q247,471 219.5,457 Q192,443 171.5,419.5 Q151,396 139.5,365 Q128,334 126,300"/> 
            <glyph glyph-name="f" unicode="&#x66;" horiz-adv-x="379" d=" M276,776 Q318,776 344.5,769.5 Q371,763 379,758 L366,702 Q355,707 333.5,712.5 Q312,718 279,718 Q210,718 180.5,683 Q151,648 151,571 L151,517 L359,517 L359,462 L151,462 L151,0 L86,0 L86,573 Q86,674 132.5,725 Q179,776 276,776"/> 
            <glyph glyph-name="g" unicode="&#x67;" horiz-adv-x="487" d=" M423,60 Q417,55 405,48.5 Q393,42 375.5,35 Q358,28 335.5,23.5 Q313,19 285,19 Q240,19 198,33 Q156,47 124.5,77 Q93,107 74,154.5 Q55,202 55,270 Q55,325 72,372 Q89,419 120.5,453.5 Q152,488 197.5,507.5 Q243,527 300,527 Q372,527 415.5,517.5 Q459,508 487,499 L487,27 Q487,-89 427,-138.5 Q367,-188 246,-188 Q196,-188 155.5,-180.5 Q115,-173 86,-163 L99,-104 Q123,-115 164.5,-123 Q206,-131 248,-131 Q340,-131 381.5,-95.5 Q423,-60 423,26 M422,454 Q405,459 378,463.5 Q351,468 301,468 Q259,468 226.5,453.5 Q194,439 171,412.5 Q148,386 136,349.5 Q124,313 124,269 Q124,218 138,181.5 Q152,145 174.5,122 Q197,99 226,88.5 Q255,78 285,78 Q329,78 365.5,91 Q402,104 422,121"/> 
            <glyph glyph-name="h" unicode="&#x68;" horiz-adv-x="489" d=" M86,0 L86,764 L151,776 L151,502 Q183,514 216,520.5 Q249,527 282,527 Q342,527 382,510 Q422,493 446,461.5 Q470,430 479.5,386 Q489,342 489,289 L489,0 L424,0 L424,268 Q424,323 416.5,361 Q409,399 391.5,423 Q374,447 345,457.5 Q316,468 272,468 Q255,468 235.5,465 Q216,462 199,458.5 Q182,455 168.5,451 Q155,447 151,445 L151,0"/> 
            <glyph glyph-name="i" unicode="&#x69;" horiz-adv-x="166" d=" M151,0 L86,0 L86,517 L151,517 M166,673 Q166,650 152,636.5 Q138,623 118,623 Q98,623 84,636.5 Q70,650 70,673 Q70,696 84,709.5 Q98,723 118,723 Q138,723 152,709.5 Q166,696 166,673"/> 
            <glyph glyph-name="j" unicode="&#x6A;" horiz-adv-x="166" d=" M-11,-187 Q-22,-187 -38.5,-184 Q-55,-181 -63,-177 L-54,-124 Q-47,-126 -35,-128 Q-23,-130 -12,-130 Q47,-130 66.5,-97 Q86,-64 86,2 L86,517 L151,517 L151,5 Q151,-93 114,-140 Q77,-187 -11,-187 M166,673 Q166,650 152,636.5 Q138,623 118,623 Q98,623 84,636.5 Q70,650 70,673 Q70,696 84,709.5 Q98,723 118,723 Q138,723 152,709.5 Q166,696 166,673"/> 
            <glyph glyph-name="k" unicode="&#x6B;" horiz-adv-x="477" d=" M224,281 Q255,260 290.5,227 Q326,194 360.5,155.5 Q395,117 425.5,76.5 Q456,36 477,0 L400,0 Q376,40 345.5,78.5 Q315,117 281.5,151 Q248,185 214.5,213 Q181,241 151,260 L151,0 L86,0 L86,764 L151,776 L151,284 Q176,308 207,339 Q238,370 269.5,402 Q301,434 329,464 Q357,494 377,517 L455,517 Q432,493 403,463 Q374,433 342.5,400.5 Q311,368 280,337 Q249,306 224,281"/> 
            <glyph glyph-name="l" unicode="&#x6C;" horiz-adv-x="226" d=" M217,-9 Q184,-8 159.5,-0.5 Q135,7 118.5,22.5 Q102,38 93.5,62.5 Q85,87 85,124 L85,764 L150,776 L150,126 Q150,102 154.5,87.5 Q159,73 168,64.5 Q177,56 191.5,52 Q206,48 226,45"/> 
            <glyph glyph-name="m" unicode="&#x6D;" horiz-adv-x="783" d=" M86,499 Q115,507 161.5,517 Q208,527 282,527 Q380,527 424,470 Q429,474 443.5,483.5 Q458,493 480,503 Q502,513 531.5,520 Q561,527 597,527 Q656,527 692.5,509.5 Q729,492 749,460.5 Q769,429 776,385 Q783,341 783,289 L783,0 L718,0 L718,268 Q718,319 713.5,356.5 Q709,394 695.5,418.5 Q682,443 657,455.5 Q632,468 592,468 Q562,468 537.5,462.5 Q513,457 495,449 Q477,441 465.5,433 Q454,425 449,421 Q458,395 462.5,362.5 Q467,330 467,294 L467,0 L402,0 L402,268 Q402,319 397.5,356.5 Q393,394 379,418.5 Q365,443 339.5,455.5 Q314,468 272,468 Q225,468 192.5,463 Q160,458 151,454 L151,0 L86,0"/> 
            <glyph glyph-name="n" unicode="&#x6E;" horiz-adv-x="489" d=" M86,499 Q115,507 164,517 Q213,527 284,527 Q343,527 382.5,510 Q422,493 445.5,461.5 Q469,430 479,386 Q489,342 489,289 L489,0 L424,0 L424,268 Q424,323 416.5,361 Q409,399 391.5,423 Q374,447 345.5,457.5 Q317,468 274,468 Q228,468 194.5,463 Q161,458 151,454 L151,0 L86,0"/> 
            <glyph glyph-name="o" unicode="&#x6F;" horiz-adv-x="527" d=" M527,258 Q527,197 509.5,147 Q492,97 460.5,62 Q429,27 386,7.5 Q343,-12 291,-12 Q239,-12 196,7.5 Q153,27 121.5,62 Q90,97 72.5,147 Q55,197 55,258 Q55,319 72.5,369 Q90,419 121.5,454.5 Q153,490 196,509.5 Q239,529 291,529 Q343,529 386,509.5 Q429,490 460.5,454.5 Q492,419 509.5,369 Q527,319 527,258 M458,258 Q458,355 413,412.5 Q368,470 291,470 Q214,470 169,412.5 Q124,355 124,258 Q124,161 169,104 Q214,47 291,47 Q368,47 413,104 Q458,161 458,258"/> 
            <glyph glyph-name="p" unicode="&#x70;" horiz-adv-x="528" d=" M151,93 Q160,86 173.5,78 Q187,70 205,63 Q223,56 244,51.5 Q265,47 288,47 Q336,47 368.5,63.5 Q401,80 421,108.5 Q441,137 450,175.5 Q459,214 459,257 Q459,359 408,413.5 Q357,468 273,468 Q225,468 195.5,463.5 Q166,459 151,454 M151,-185 L86,-185 L86,499 Q115,509 160,518 Q205,527 274,527 Q331,527 377.5,508.5 Q424,490 457.5,455 Q491,420 509.5,370 Q528,320 528,257 Q528,198 512.5,148.5 Q497,99 467,63.5 Q437,28 393.5,8 Q350,-12 294,-12 Q243,-12 205.5,2.5 Q168,17 151,30"/> 
            <glyph glyph-name="q" unicode="&#x71;" horiz-adv-x="497" d=" M432,454 Q417,459 387.5,463.5 Q358,468 310,468 Q226,468 175,413.5 Q124,359 124,257 Q124,214 133,175.5 Q142,137 162,108.5 Q182,80 214.5,63.5 Q247,47 295,47 Q318,47 339,51.5 Q360,56 378,63 Q396,70 409.5,78 Q423,86 432,93 M432,30 Q415,17 377.5,2.5 Q340,-12 289,-12 Q233,-12 189.5,8 Q146,28 116,63.5 Q86,99 70.5,148.5 Q55,198 55,257 Q55,320 73.5,370 Q92,420 125.5,455 Q159,490 205.5,508.5 Q252,527 309,527 Q378,527 423,518 Q468,509 497,499 L497,-185 L432,-185"/> 
            <glyph glyph-name="r" unicode="&#x72;" horiz-adv-x="362" d=" M262,527 Q294,527 322.5,522 Q351,517 362,512 L349,456 Q341,460 316.5,464.5 Q292,469 252,469 Q210,469 184.5,463 Q159,457 151,453 L151,0 L86,0 L86,493 Q111,504 155,515.5 Q199,527 262,527"/> 
            <glyph glyph-name="s" unicode="&#x73;" horiz-adv-x="388" d=" M192,46 Q248,46 284.5,64.5 Q321,83 321,127 Q321,148 314.5,163 Q308,178 293,190 Q278,202 253.5,213 Q229,224 193,239 Q164,251 138,263.5 Q112,276 92,292.5 Q72,309 60,332 Q48,355 48,388 Q48,451 95.5,490 Q143,529 226,529 Q279,529 313.5,520 Q348,511 362,504 L347,446 Q335,452 306.5,462 Q278,472 223,472 Q201,472 181.5,467.5 Q162,463 147,453.5 Q132,444 123,429.5 Q114,415 114,394 Q114,373 122,358 Q130,343 145.5,331.5 Q161,320 183.5,310 Q206,300 235,288 Q265,276 292.5,263.5 Q320,251 341,233.5 Q362,216 375,191.5 Q388,167 388,130 Q388,60 335.5,24 Q283,-12 192,-12 Q124,-12 88,-0.5 Q52,11 40,17 L57,76 Q60,74 70,69.5 Q80,65 97,59.5 Q114,54 137.5,50 Q161,46 192,46"/> 
            <glyph glyph-name="t" unicode="&#x74;" horiz-adv-x="375" d=" M147,517 L353,517 L353,462 L147,462 L147,187 Q147,143 154.5,115.5 Q162,88 176,73 Q190,58 210,53 Q230,48 254,48 Q295,48 320,57.5 Q345,67 359,75 L375,21 Q361,12 326,0.5 Q291,-11 250,-11 Q202,-11 169.5,1.5 Q137,14 117.5,39.5 Q98,65 90,103 Q82,141 82,193 L82,669 L147,681"/> 
            <glyph glyph-name="u" unicode="&#x75;" horiz-adv-x="483" d=" M483,18 Q454,10 405,0 Q356,-10 285,-10 Q227,-10 188,7 Q149,24 125,55 Q101,86 90.5,130 Q80,174 80,227 L80,517 L145,517 L145,248 Q145,193 153,155 Q161,117 179,93.5 Q197,70 225.5,59.5 Q254,49 295,49 Q341,49 375,54 Q409,59 418,63 L418,517 L483,517"/> 
            <glyph glyph-name="v" unicode="&#x76;" horiz-adv-x="460" d=" M242,70 Q263,113 285,168.5 Q307,224 327.5,283.5 Q348,343 365.5,403.5 Q383,464 395,517 L460,517 Q442,446 420,377 Q398,308 373.5,242 Q349,176 322.5,115 Q296,54 271,0 L209,0 Q183,54 157,115 Q131,176 106.5,242 Q82,308 60,377 Q38,446 20,517 L89,517 Q101,464 118.5,403.5 Q136,343 156.5,283.5 Q177,224 199,168.5 Q221,113 242,70"/> 
            <glyph glyph-name="w" unicode="&#x77;" horiz-adv-x="752" d=" M419,517 Q428,467 442.5,410.5 Q457,354 474.5,295.5 Q492,237 511.5,180 Q531,123 551,73 Q568,111 587,165.5 Q606,220 625,280.5 Q644,341 660.5,402.5 Q677,464 688,517 L752,517 Q716,365 673.5,239 Q631,113 580,0 L519,0 Q504,35 487.5,78.5 Q471,122 453.5,171.5 Q436,221 419.5,275.5 Q403,330 388,387 Q373,330 356.5,275.5 Q340,221 322.5,171.5 Q305,122 288.5,78.5 Q272,35 257,0 L195,0 Q144,113 101.5,239 Q59,365 23,517 L92,517 Q103,464 119.5,402.5 Q136,341 155,280.5 Q174,220 193.5,166 Q213,112 230,74 Q249,124 268.5,181 Q288,238 305,296 Q322,354 337,410.5 Q352,467 363,517"/> 
            <glyph glyph-name="x" unicode="&#x78;" horiz-adv-x="471" d=" M248,234 Q226,205 204,173 Q182,141 161.5,110 Q141,79 124,50.5 Q107,22 95,0 L28,0 Q69,77 114,143.5 Q159,210 206,274 L38,517 L114,517 L248,319 L384,517 L455,517 L290,278 Q311,250 335,217 Q359,184 383,148.5 Q407,113 429.5,75 Q452,37 471,0 L401,0 Q389,22 372,50.5 Q355,79 334.5,110 Q314,141 291.5,173 Q269,205 248,234"/> 
            <glyph glyph-name="y" unicode="&#x79;" horiz-adv-x="451" d=" M227,-11 Q194,50 163.5,116 Q133,182 106.5,249.5 Q80,317 58,384.5 Q36,452 20,517 L89,517 Q100,469 117,413.5 Q134,358 155.5,299 Q177,240 203,178 Q229,116 259,56 Q281,118 298,173 Q315,228 329.5,282.5 Q344,337 357.5,394 Q371,451 386,517 L451,517 Q419,372 378,235 Q337,98 289,-16 Q270,-61 250,-93.5 Q230,-126 205.5,-147 Q181,-168 148.5,-178 Q116,-188 72,-188 Q47,-188 26.5,-182 Q6,-176 1,-173 L14,-119 Q18,-122 36.5,-127.5 Q55,-133 75,-133 Q103,-133 125.5,-127 Q148,-121 166,-106.5 Q184,-92 198.5,-69 Q213,-46 227,-11"/> 
            <glyph glyph-name="z" unicode="&#x7A;" horiz-adv-x="416" d=" M407,464 Q384,438 347,392 Q310,346 268,289.5 Q226,233 185,171.5 Q144,110 113,55 L416,55 L416,0 L38,0 L38,47 Q64,96 102.5,155 Q141,214 182,271.5 Q223,329 262,379.5 Q301,430 328,462 L53,462 L53,517 L407,517"/> 
            <glyph glyph-name="{" unicode="&#x7B;" horiz-adv-x="311" d=" M132,289 Q148,280 161,267.5 Q174,255 183,236 Q192,217 196.5,190 Q201,163 201,126 L201,19 Q201,-28 203,-59.5 Q205,-91 215.5,-110.5 Q226,-130 248,-138 Q270,-146 311,-146 L311,-196 L303,-196 Q255,-196 223,-185 Q191,-174 172.5,-153 Q154,-132 146.5,-101 Q139,-70 139,-29 L139,165 Q139,183 133.5,200.5 Q128,218 116,232 Q104,246 86,255 Q68,264 43,264 L43,313 Q68,313 86,322 Q104,331 116,345 Q128,359 133.5,376.5 Q139,394 139,412 L139,606 Q139,646 146.5,677.5 Q154,709 172.5,730 Q191,751 223,762 Q255,773 303,773 L311,773 L311,723 Q270,723 248,715 Q226,707 215.5,687.5 Q205,668 203,636.5 Q201,605 201,558 L201,451 Q201,414 196.5,387.5 Q192,361 183,342 Q174,323 161,310.5 Q148,298 132,289"/> 
            <glyph glyph-name="|" unicode="&#x7C;" horiz-adv-x="162" d=" M100,783 L162,783 L162,-185 L100,-185"/> 
            <glyph glyph-name="}" unicode="&#x7D;" horiz-adv-x="276" d=" M187,289 Q171,298 158,310.5 Q145,323 136,342 Q127,361 122.5,387.5 Q118,414 118,451 L118,558 Q118,605 116,636.5 Q114,668 103.5,687.5 Q93,707 71,715 Q49,723 8,723 L8,773 L16,773 Q64,773 96,762 Q128,751 146.5,730 Q165,709 172.5,677.5 Q180,646 180,606 L180,412 Q180,394 185.5,376.5 Q191,359 203,345 Q215,331 233,322 Q251,313 276,313 L276,264 Q251,264 233,255 Q215,246 203,232 Q191,218 185.5,200.5 Q180,183 180,165 L180,-29 Q180,-70 172.5,-101 Q165,-132 146.5,-153 Q128,-174 96,-185 Q64,-196 16,-196 L8,-196 L8,-146 Q49,-146 71,-138 Q93,-130 103.5,-110.5 Q114,-91 116,-59.5 Q118,-28 118,19 L118,126 Q118,163 122.5,190 Q127,217 136,236 Q145,255 158,267.5 Q171,280 187,289"/> 
            <glyph glyph-name="~" unicode="&#x7E;" horiz-adv-x="514" d=" M384,222 Q350,222 323,236 Q296,250 271.5,267 Q247,284 223.5,298 Q200,312 174,312 Q155,312 142,302.5 Q129,293 120.5,279.5 Q112,266 107.5,252.5 Q103,239 101,231 L50,243 Q54,261 62.5,282.5 Q71,304 85.5,322.5 Q100,341 123,353.5 Q146,366 180,366 Q214,366 241,352 Q268,338 292.5,321 Q317,304 340.5,290 Q364,276 390,276 Q409,276 422,285.5 Q435,295 443.5,308.5 Q452,322 456.5,335.5 Q461,349 463,357 L514,345 Q509,327 501,305.5 Q493,284 478.5,265.5 Q464,247 441,234.5 Q418,222 384,222"/> 
            <glyph glyph-name="¡" unicode="&#xA1;" horiz-adv-x="192" d=" M172,-185 L102,-185 L102,5 Q102,91 107.5,158 Q113,225 122,292 L152,292 Q156,259 159.5,226 Q163,193 166,158 Q169,123 170.5,85.5 Q172,48 172,5 M192,462 Q192,439 177.5,423 Q163,407 137,407 Q111,407 96.5,423 Q82,439 82,462 Q82,485 96.5,501 Q111,517 137,517 Q163,517 177.5,501 Q192,485 192,462"/> 
            <glyph glyph-name="¢" unicode="&#xA2;" horiz-adv-x="488" d=" M304,34 Q256,41 219,63 Q182,85 157.5,118.5 Q133,152 120,195.5 Q107,239 107,290 Q107,341 120.5,385.5 Q134,430 159.5,464 Q185,498 221.5,520.5 Q258,543 304,550 L304,693 L363,693 L363,552 Q394,552 422.5,545.5 Q451,539 479,528 L462,473 Q441,482 412.5,489 Q384,496 353,496 Q266,496 221,444.5 Q176,393 176,290 Q176,246 186.5,209 Q197,172 219.5,145 Q242,118 277.5,103 Q313,88 363,88 Q405,88 434,96.5 Q463,105 476,111 L488,57 Q482,53 468.5,48.5 Q455,44 438,40.5 Q421,37 401.5,34.5 Q382,32 363,31 L363,-109 L304,-109"/> 
            <glyph glyph-name="£" unicode="&#xA3;" horiz-adv-x="528" d=" M242,364 L443,364 L443,309 L242,309 L242,300 Q242,241 238.5,179.5 Q235,118 225,57 L528,57 L528,0 L149,0 Q160,69 167.5,141.5 Q175,214 175,297 L175,309 L79,309 L79,364 L175,364 L175,460 Q175,534 190,582 Q205,630 232.5,657.5 Q260,685 297.5,695.5 Q335,706 380,706 Q422,706 453.5,697.5 Q485,689 508,678 L490,619 Q441,645 372,645 Q341,645 316.5,637 Q292,629 275.5,608.5 Q259,588 250.5,554 Q242,520 242,469"/> 
            <glyph glyph-name="¤" unicode="&#xA4;" horiz-adv-x="508" d=" M95,347 Q95,380 104,409.5 Q113,439 130,462 L56,538 L96,579 L172,501 Q195,518 223,527 Q251,536 282,536 Q313,536 341,527 Q369,518 392,501 L468,579 L508,538 L434,462 Q451,439 460,409.5 Q469,380 469,347 Q469,314 460,284.5 Q451,255 434,232 L508,156 L468,115 L392,193 Q369,176 341,167 Q313,158 282,158 Q251,158 223,167 Q195,176 172,193 L96,115 L56,156 L130,232 Q113,255 104,284.5 Q95,314 95,347 M411,347 Q411,377 401,402 Q391,427 373.5,445 Q356,463 332.5,473 Q309,483 282,483 Q255,483 231.5,473 Q208,463 190.5,445 Q173,427 163,402 Q153,377 153,347 Q153,317 163,292 Q173,267 190.5,249 Q208,231 231.5,221 Q255,211 282,211 Q309,211 332.5,221 Q356,231 373.5,249 Q391,267 401,292 Q411,317 411,347"/> 
            <glyph glyph-name="¥" unicode="&#xA5;" horiz-adv-x="533" d=" M250,0 L250,115 L87,115 L87,168 L250,168 L250,287 L87,287 L87,340 L236,340 Q176,433 125,519.5 Q74,606 31,693 L100,693 Q139,610 186,528.5 Q233,447 284,371 Q335,447 381.5,528.5 Q428,610 467,693 L533,693 Q490,606 438.5,519.5 Q387,433 327,340 L478,340 L478,287 L315,287 L315,168 L478,168 L478,115 L315,115 L315,0"/> 
            <glyph glyph-name="¦" unicode="&#xA6;" horiz-adv-x="162" d=" M100,191 L162,191 L162,-185 L100,-185 M100,783 L162,783 L162,407 L100,407"/> 
            <glyph glyph-name="§" unicode="&#xA7;" horiz-adv-x="437" d=" M72,-28 Q98,-39 130,-48.5 Q162,-58 221,-58 Q247,-58 270,-53 Q293,-48 310.5,-37.5 Q328,-27 338,-11 Q348,5 348,28 Q348,49 341,65 Q334,81 318.5,94 Q303,107 278.5,118 Q254,129 220,141 Q185,153 153.5,165.5 Q122,178 98.5,196.5 Q75,215 61,242 Q47,269 47,309 Q47,337 56.5,360.5 Q66,384 80,402 Q94,420 111.5,433 Q129,446 144,455 Q114,477 99.5,502.5 Q85,528 85,565 Q85,631 129.5,669.5 Q174,708 261,708 Q321,708 356,698.5 Q391,689 406,683 L390,630 Q373,638 341.5,647.5 Q310,657 260,657 Q211,657 179,637.5 Q147,618 147,576 Q147,535 173.5,512 Q200,489 262,470 Q295,459 326,447 Q357,435 382,416.5 Q407,398 422,370 Q437,342 437,300 Q437,275 429,253 Q421,231 407.5,212 Q394,193 376.5,178.5 Q359,164 341,154 Q374,134 392.5,104 Q411,74 411,37 Q411,-35 357.5,-72 Q304,-109 214,-109 Q154,-109 116.5,-99.5 Q79,-90 56,-79 M227,420 Q216,424 205.5,427.5 Q195,431 190,433 Q155,415 132,387 Q109,359 109,317 Q109,288 120.5,269 Q132,250 152,236 Q172,222 199,211.5 Q226,201 257,191 Q267,188 278,184 Q289,180 296,177 Q334,196 354.5,228 Q375,260 375,295 Q375,323 362,343 Q349,363 328,377 Q307,391 280.5,401 Q254,411 227,420"/> 
            <glyph glyph-name="¨" unicode="&#xA8;" horiz-adv-x="320" d=" M148,673 Q148,651 135,638 Q122,625 102,625 Q82,625 69,638 Q56,651 56,673 Q56,695 69,708 Q82,721 102,721 Q122,721 135,708 Q148,695 148,673 M320,673 Q320,651 307,638 Q294,625 274,625 Q254,625 241,638 Q228,651 228,673 Q228,695 241,708 Q254,721 274,721 Q294,721 307,708 Q320,695 320,673"/> 
            <glyph glyph-name="©" unicode="&#xA9;" horiz-adv-x="752" d=" M418,142 Q379,142 345.5,156 Q312,170 287,196 Q262,222 248,260.5 Q234,299 234,348 Q234,396 249.5,433.5 Q265,471 291,497.5 Q317,524 351,537.5 Q385,551 422,551 Q471,551 501.5,537.5 Q532,524 543,516 L524,471 Q509,479 485.5,488.5 Q462,498 422,498 Q367,498 330.5,459 Q294,420 294,348 Q294,274 329.5,234.5 Q365,195 426,195 Q469,195 493.5,204.5 Q518,214 529,221 L546,173 Q533,165 500,153.5 Q467,142 418,142 M752,347 Q752,261 724,194 Q696,127 649.5,80.5 Q603,34 541.5,9.5 Q480,-15 413,-15 Q346,-15 284.5,9.5 Q223,34 176.5,80.5 Q130,127 102,194 Q74,261 74,347 Q74,432 102,499.5 Q130,567 176.5,613 Q223,659 284.5,683.5 Q346,708 413,708 Q480,708 541.5,683.5 Q603,659 649.5,613 Q696,567 724,499.5 Q752,432 752,347 M693,347 Q693,416 672,473 Q651,530 614,570.5 Q577,611 525.5,633 Q474,655 413,655 Q352,655 300.5,633 Q249,611 212,570.5 Q175,530 154,473 Q133,416 133,347 Q133,278 154,221 Q175,164 212,123.5 Q249,83 300.5,60.5 Q352,38 413,38 Q474,38 525.5,60.5 Q577,83 614,123.5 Q651,164 672,221 Q693,278 693,347"/> 
            <glyph glyph-name="ª" unicode="&#xAA;" horiz-adv-x="324" d=" M195,379 Q217,379 238,380.5 Q259,382 270,384 L270,504 Q257,506 240,508 Q223,510 205,510 Q184,510 165,507 Q146,504 131.5,497 Q117,490 109,477.5 Q101,465 101,447 Q101,415 121,397 Q141,379 195,379 M189,704 Q226,704 252,694.5 Q278,685 294,667.5 Q310,650 317,625.5 Q324,601 324,572 L324,346 Q312,343 295.5,340.5 Q279,338 261.5,336 Q244,334 226.5,333 Q209,332 196,332 Q129,332 87.5,358.5 Q46,385 46,443 Q46,473 58.5,494.5 Q71,516 92.5,529.5 Q114,543 142.5,549.5 Q171,556 203,556 Q214,556 232,554 Q250,552 270,548 L270,557 Q270,575 268,592.5 Q266,610 258,624 Q250,638 233.5,647 Q217,656 189,656 Q163,656 138.5,653.5 Q114,651 94,644 L87,690 Q104,695 130.5,699.5 Q157,704 189,704"/> 
            <glyph glyph-name="«" unicode="&#xAB;" horiz-adv-x="406" d=" M188,72 L36,284 L188,495 L229,469 L113,284 L229,98 M365,72 L213,284 L365,495 L406,469 L290,284 L406,98"/> 
            <glyph glyph-name="¬" unicode="&#xAC;" horiz-adv-x="508" d=" M508,48 L450,48 L450,324 L56,324 L56,380 L508,380"/> 
            <glyph glyph-name="­" unicode="&#xAD;" horiz-adv-x="254" d=" M28,321 L254,321 L254,258 L28,258"/> 
            <glyph glyph-name="®" unicode="&#xAE;" horiz-adv-x="752" d=" M521,149 Q495,196 467,238.5 Q439,281 418,306 Q411,305 405,305 Q399,305 394,305 L331,305 L331,149 L276,149 L276,536 Q299,541 327.5,544 Q356,547 381,547 Q466,547 510.5,516 Q555,485 555,422 Q555,386 535,357.5 Q515,329 476,315 Q484,306 497.5,287.5 Q511,269 526,246 Q541,223 556,197 Q571,171 582,149 M331,350 L381,350 Q406,350 427,353 Q448,356 463.5,364.5 Q479,373 487.5,387 Q496,401 496,423 Q496,444 486.5,458.5 Q477,473 461.5,482 Q446,491 426,495 Q406,499 384,499 Q369,499 355.5,498.5 Q342,498 331,497 M752,347 Q752,261 724,194 Q696,127 649.5,80.5 Q603,34 541.5,9.5 Q480,-15 413,-15 Q346,-15 284.5,9.5 Q223,34 176.5,80.5 Q130,127 102,194 Q74,261 74,347 Q74,432 102,499.5 Q130,567 176.5,613 Q223,659 284.5,683.5 Q346,708 413,708 Q480,708 541.5,683.5 Q603,659 649.5,613 Q696,567 724,499.5 Q752,432 752,347 M693,347 Q693,416 672,473 Q651,530 614,570.5 Q577,611 525.5,633 Q474,655 413,655 Q352,655 300.5,633 Q249,611 212,570.5 Q175,530 154,473 Q133,416 133,347 Q133,278 154,221 Q175,164 212,123.5 Q249,83 300.5,60.5 Q352,38 413,38 Q474,38 525.5,60.5 Q577,83 614,123.5 Q651,164 672,221 Q693,278 693,347"/> 
            <glyph glyph-name="¯" unicode="&#xAF;" horiz-adv-x="321" d=" M56,649 L56,704 L321,704 L321,649"/> 
            <glyph glyph-name="°" unicode="&#xB0;" horiz-adv-x="289" d=" M159,511 Q133,511 109.5,520 Q86,529 68,545.5 Q50,562 39.5,586.5 Q29,611 29,642 Q29,673 39.5,697.5 Q50,722 68,738.5 Q86,755 109.5,764 Q133,773 159,773 Q185,773 208.5,764 Q232,755 250,738.5 Q268,722 278.5,697.5 Q289,673 289,642 Q289,611 278.5,586.5 Q268,562 250,545.5 Q232,529 208.5,520 Q185,511 159,511 M159,556 Q194,556 217.5,579 Q241,602 241,642 Q241,682 217.5,705 Q194,728 159,728 Q124,728 100.5,705 Q77,682 77,642 Q77,602 100.5,579 Q124,556 159,556"/> 
            <glyph glyph-name="±" unicode="&#xB1;" horiz-adv-x="508" d=" M56,56 L508,56 L508,0 L56,0 M56,401 L253,401 L253,618 L311,618 L311,401 L508,401 L508,345 L311,345 L311,128 L253,128 L253,345 L56,345"/> 
            <glyph glyph-name="²" unicode="&#xB2;" horiz-adv-x="303" d=" M284,600 Q284,579 276.5,561 Q269,543 257,527.5 Q245,512 229.5,498 Q214,484 197,471 Q171,450 154.5,434 Q138,418 128.5,406 Q119,394 115.5,384 Q112,374 112,365 L303,365 L303,317 L55,317 Q54,322 54,327 Q54,332 54,337 Q54,367 64,390.5 Q74,414 89.5,433.5 Q105,453 124,469.5 Q143,486 161,503 Q175,515 187,525.5 Q199,536 208,547.5 Q217,559 222.5,572 Q228,585 228,602 Q228,635 208,647.5 Q188,660 161,660 Q144,660 129.5,655.5 Q115,651 103,644.5 Q91,638 82.5,631.5 Q74,625 70,621 L43,659 Q60,677 90.5,692.5 Q121,708 166,708 Q222,708 253,681 Q284,654 284,600"/> 
            <glyph glyph-name="³" unicode="&#xB3;" horiz-adv-x="299" d=" M146,357 Q203,357 223,376.5 Q243,396 243,425 Q243,446 233,460 Q223,474 207,483 Q191,492 169.5,495.5 Q148,499 126,499 L113,499 L113,544 L128,544 Q146,544 163.5,546.5 Q181,549 194,556.5 Q207,564 215,576 Q223,588 223,608 Q223,637 204.5,649 Q186,661 155,661 Q123,661 101,651.5 Q79,642 66,633 L46,675 Q57,684 86,696 Q115,708 157,708 Q222,708 249.5,681.5 Q277,655 277,613 Q277,551 216,526 Q253,515 276,490 Q299,465 299,423 Q299,400 290.5,379.5 Q282,359 264,343 Q246,327 217.5,318 Q189,309 149,309 Q111,309 86,315.5 Q61,322 45,330 L58,377 Q72,370 93.5,363.5 Q115,357 146,357"/> 
            <glyph glyph-name="´" unicode="&#xB4;" horiz-adv-x="316" d=" M316,722 L145,583 L112,621 L270,773"/> 
            <glyph glyph-name="µ" unicode="&#xB5;" horiz-adv-x="489" d=" M291,-10 Q234,-10 199,5 Q164,20 144,46 Q148,14 148.5,-18.5 Q149,-51 149,-79 L149,-185 L86,-185 L86,517 L151,517 L151,248 Q151,193 159,155 Q167,117 185,93.5 Q203,70 231.5,59.5 Q260,49 301,49 Q347,49 381,54 Q415,59 424,63 L424,517 L489,517 L489,18 Q460,10 411,0 Q362,-10 291,-10"/> 
            <glyph glyph-name="¶" unicode="&#xB6;" horiz-adv-x="515" d=" M457,638 Q443,640 419.5,641.5 Q396,643 377,643 Q369,643 360,642.5 Q351,642 346,641 L346,-185 L288,-185 L288,264 Q233,268 188,283 Q143,298 111.5,324.5 Q80,351 63,389.5 Q46,428 46,480 Q46,535 69.5,576 Q93,617 135,644.5 Q177,672 235.5,685.5 Q294,699 364,699 Q396,699 438,696.5 Q480,694 515,686 L515,-185 L457,-185"/> 
            <glyph glyph-name="·" unicode="&#xB7;" horiz-adv-x="178" d=" M178,294 Q178,271 163.5,255 Q149,239 123,239 Q97,239 82.5,255 Q68,271 68,294 Q68,317 82.5,333 Q97,349 123,349 Q149,349 163.5,333 Q178,317 178,294"/> 
            <glyph glyph-name="¸" unicode="&#xB8;" horiz-adv-x="267" d=" M206,-36 Q234,-48 250.5,-65.5 Q267,-83 267,-112 Q267,-124 263,-137.5 Q259,-151 248,-162 Q237,-173 218,-180 Q199,-187 169,-187 Q149,-187 128,-183.5 Q107,-180 98,-175 L106,-132 Q117,-137 131,-139 Q145,-141 165,-141 Q206,-141 206,-112 Q206,-95 192,-86 Q178,-77 148,-65 Q151,-55 157,-42 Q163,-29 169,-17 Q175,-5 180.5,5 Q186,15 189,20 L235,20 Q228,9 219.5,-7.5 Q211,-24 206,-36"/> 
            <glyph glyph-name="¹" unicode="&#xB9;" horiz-adv-x="228" d=" M74,578 L61,620 Q96,631 131,650.5 Q166,670 191,699 L228,699 L228,317 L174,317 L174,621 Q163,613 148.5,606 Q134,599 120,593 Q106,587 93.5,583 Q81,579 74,578"/> 
            <glyph glyph-name="º" unicode="&#xBA;" horiz-adv-x="391" d=" M391,518 Q391,476 378,441.5 Q365,407 342,382.5 Q319,358 287,344.5 Q255,331 218,331 Q181,331 149.5,344.5 Q118,358 95,382.5 Q72,407 59,441.5 Q46,476 46,518 Q46,560 59,594.5 Q72,629 95,653.5 Q118,678 149.5,691.5 Q181,705 218,705 Q255,705 287,691.5 Q319,678 342,653.5 Q365,629 378,594.5 Q391,560 391,518 M332,518 Q332,581 301,618.5 Q270,656 218,656 Q167,656 136,618.5 Q105,581 105,518 Q105,455 136,417.5 Q167,380 218,380 Q270,380 301,417.5 Q332,455 332,518"/> 
            <glyph glyph-name="»" unicode="&#xBB;" horiz-adv-x="416" d=" M46,98 L162,284 L46,469 L87,495 L239,284 L87,72 M223,98 L339,284 L223,469 L264,495 L416,284 L264,72"/> 
            <glyph glyph-name="¼" unicode="&#xBC;" horiz-adv-x="840" d=" M74,578 L61,620 Q96,631 131,650.5 Q166,670 191,699 L228,699 L228,317 L174,317 L174,621 Q163,613 148.5,606 Q134,599 120,593 Q106,587 93.5,583 Q81,579 74,578 M601,693 L667,693 L272,0 L206,0 M840,65677 L840,65633 L789,65633 L789,65537 L736,65537 L736,65633 L548,65633 L548,65666 Q558,65686 578.5,65719 Q599,65752 625.5,65789 Q652,65826 682.5,65861 Q713,65896 742,65919 L789,65919 L789,65677 M736,65677 L736,65856 Q719,65839 700,65816 Q681,65793 663.5,65768.5 Q646,65744 630.5,65719.5 Q615,65695 605,65677"/> 
            <glyph glyph-name="½" unicode="&#xBD;" horiz-adv-x="818" d=" M74,578 L61,620 Q96,631 131,650.5 Q166,670 191,699 L228,699 L228,317 L174,317 L174,621 Q163,613 148.5,606 Q134,599 120,593 Q106,587 93.5,583 Q81,579 74,578 M580,693 L646,693 L251,0 L185,0 M799,65820 Q799,65799 791.5,65781 Q784,65763 772,65747.5 Q760,65732 744.5,65718 Q729,65704 712,65691 Q686,65670 669.5,65654 Q653,65638 643.5,65626 Q634,65614 630.5,65604 Q627,65594 627,65585 L818,65585 L818,65537 L570,65537 Q569,65542 569,65547 Q569,65552 569,65557 Q569,65587 579,65610.5 Q589,65634 604.5,65653.5 Q620,65673 639,65689.5 Q658,65706 676,65723 Q690,65735 702,65745.5 Q714,65756 723,65767.5 Q732,65779 737.5,65792 Q743,65805 743,65822 Q743,65855 723,65867.5 Q703,65880 676,65880 Q659,65880 644.5,65875.5 Q630,65871 618,65864.5 Q606,65858 597.5,65851.5 Q589,65845 585,65841 L558,65879 Q575,65897 605.5,65912.5 Q636,65928 681,65928 Q737,65928 768,65901 Q799,65874 799,65820"/> 
            <glyph glyph-name="¾" unicode="&#xBE;" horiz-adv-x="840" d=" M146,357 Q203,357 223,376.5 Q243,396 243,425 Q243,446 233,460 Q223,474 207,483 Q191,492 169.5,495.5 Q148,499 126,499 L113,499 L113,544 L128,544 Q146,544 163.5,546.5 Q181,549 194,556.5 Q207,564 215,576 Q223,588 223,608 Q223,637 204.5,649 Q186,661 155,661 Q123,661 101,651.5 Q79,642 66,633 L46,675 Q57,684 86,696 Q115,708 157,708 Q222,708 249.5,681.5 Q277,655 277,613 Q277,551 216,526 Q253,515 276,490 Q299,465 299,423 Q299,400 290.5,379.5 Q282,359 264,343 Q246,327 217.5,318 Q189,309 149,309 Q111,309 86,315.5 Q61,322 45,330 L58,377 Q72,370 93.5,363.5 Q115,357 146,357 M616,693 L682,693 L287,0 L221,0 M840,65677 L840,65633 L789,65633 L789,65537 L736,65537 L736,65633 L548,65633 L548,65666 Q558,65686 578.5,65719 Q599,65752 625.5,65789 Q652,65826 682.5,65861 Q713,65896 742,65919 L789,65919 L789,65677 M736,65677 L736,65856 Q719,65839 700,65816 Q681,65793 663.5,65768.5 Q646,65744 630.5,65719.5 Q615,65695 605,65677"/> 
            <glyph glyph-name="¿" unicode="&#xBF;" horiz-adv-x="363" d=" M99,-39 Q99,-65 109,-82 Q119,-99 135.5,-109 Q152,-119 174.5,-123.5 Q197,-128 222,-128 Q288,-128 344,-98 L363,-152 Q342,-164 302.5,-175 Q263,-186 215,-186 Q161,-186 125.5,-172.5 Q90,-159 68.5,-138.5 Q47,-118 38.5,-93 Q30,-68 30,-45 Q30,-11 42.5,17 Q55,45 74,69 Q93,93 115.5,116 Q138,139 157,163 Q176,187 188.5,214.5 Q201,242 201,276 Q201,282 201,284.5 Q201,287 200,292 L251,292 Q255,275 255,255 Q255,223 243.5,196.5 Q232,170 214.5,147 Q197,124 177,102 Q157,80 139.5,58 Q122,36 110.5,12.5 Q99,-11 99,-39 M274,462 Q274,439 259.5,423 Q245,407 219,407 Q193,407 178.5,423 Q164,439 164,462 Q164,485 178.5,501 Q193,517 219,517 Q245,517 259.5,501 Q274,485 274,462"/> 
            <glyph glyph-name="À" unicode="&#xC0;" horiz-adv-x="631" d=" M556,0 Q537,51 520,98 Q503,145 487,190 L150,190 Q133,145 116,98 Q99,51 81,0 L10,0 Q50,108 85,201.5 Q120,295 153.5,378.5 Q187,462 220,539 Q253,616 290,693 L350,693 Q387,616 420,539 Q453,462 486.5,378.5 Q520,295 555,201.5 Q590,108 631,0 M318,615 Q280,529 244.5,440 Q209,351 171,248 L466,248 Q428,351 392,440 Q356,529 318,615 M228,929 L386,777 L353,739 L182,878"/> 
            <glyph glyph-name="Á" unicode="&#xC1;" horiz-adv-x="631" d=" M556,0 Q537,51 520,98 Q503,145 487,190 L150,190 Q133,145 116,98 Q99,51 81,0 L10,0 Q50,108 85,201.5 Q120,295 153.5,378.5 Q187,462 220,539 Q253,616 290,693 L350,693 Q387,616 420,539 Q453,462 486.5,378.5 Q520,295 555,201.5 Q590,108 631,0 M318,615 Q280,529 244.5,440 Q209,351 171,248 L466,248 Q428,351 392,440 Q356,529 318,615 M458,878 L287,739 L254,777 L412,929"/> 
            <glyph glyph-name="Â" unicode="&#xC2;" horiz-adv-x="631" d=" M556,0 Q537,51 520,98 Q503,145 487,190 L150,190 Q133,145 116,98 Q99,51 81,0 L10,0 Q50,108 85,201.5 Q120,295 153.5,378.5 Q187,462 220,539 Q253,616 290,693 L350,693 Q387,616 420,539 Q453,462 486.5,378.5 Q520,295 555,201.5 Q590,108 631,0 M318,615 Q280,529 244.5,440 Q209,351 171,248 L466,248 Q428,351 392,440 Q356,529 318,615 M216,740 L188,771 L320,918 L452,771 L424,740 L320,836"/> 
            <glyph glyph-name="Ã" unicode="&#xC3;" horiz-adv-x="631" d=" M556,0 Q537,51 520,98 Q503,145 487,190 L150,190 Q133,145 116,98 Q99,51 81,0 L10,0 Q50,108 85,201.5 Q120,295 153.5,378.5 Q187,462 220,539 Q253,616 290,693 L350,693 Q387,616 420,539 Q453,462 486.5,378.5 Q520,295 555,201.5 Q590,108 631,0 M318,615 Q280,529 244.5,440 Q209,351 171,248 L466,248 Q428,351 392,440 Q356,529 318,615 M383,785 Q361,785 343,792 Q325,799 308,807 Q289,817 277,820.5 Q265,824 255,824 Q234,824 222,810 Q210,796 200,779 L162,797 Q167,809 175.5,823 Q184,837 195.5,849 Q207,861 222.5,869 Q238,877 258,877 Q280,877 298,870 Q316,863 333,855 Q352,845 364,841.5 Q376,838 386,838 Q407,838 419,852 Q431,866 441,883 L479,865 Q474,853 465.5,839 Q457,825 445.5,813 Q434,801 418.5,793 Q403,785 383,785"/> 
            <glyph glyph-name="Ä" unicode="&#xC4;" horiz-adv-x="631" d=" M556,0 Q537,51 520,98 Q503,145 487,190 L150,190 Q133,145 116,98 Q99,51 81,0 L10,0 Q50,108 85,201.5 Q120,295 153.5,378.5 Q187,462 220,539 Q253,616 290,693 L350,693 Q387,616 420,539 Q453,462 486.5,378.5 Q520,295 555,201.5 Q590,108 631,0 M318,615 Q280,529 244.5,440 Q209,351 171,248 L466,248 Q428,351 392,440 Q356,529 318,615 M279,829 Q279,807 266,794 Q253,781 233,781 Q213,781 200,794 Q187,807 187,829 Q187,851 200,864 Q213,877 233,877 Q253,877 266,864 Q279,851 279,829 M451,829 Q451,807 438,794 Q425,781 405,781 Q385,781 372,794 Q359,807 359,829 Q359,851 372,864 Q385,877 405,877 Q425,877 438,864 Q451,851 451,829"/> 
            <glyph glyph-name="Å" unicode="&#xC5;" horiz-adv-x="631" d=" M415,742 Q415,713 401.5,691 Q388,669 367,657 Q401,585 432,511.5 Q463,438 494.5,358.5 Q526,279 559.5,190.5 Q593,102 631,0 L556,0 Q537,51 520,98 Q503,145 487,190 L150,190 Q133,145 116,98 Q99,51 81,0 L10,0 Q47,102 80,190.5 Q113,279 144.5,358.5 Q176,438 207,511.5 Q238,585 272,657 Q250,669 237,691 Q224,713 224,742 Q224,785 252.5,811 Q281,837 320,837 Q339,837 356.5,830 Q374,823 387,810.5 Q400,798 407.5,780.5 Q415,763 415,742 M318,615 Q280,529 244.5,440 Q209,351 171,248 L466,248 Q428,351 392,440 Q356,529 318,615 M377,742 Q377,770 360.5,785.5 Q344,801 320,801 Q296,801 279.5,785.5 Q263,770 263,742 Q263,713 279.5,698 Q296,683 320,683 Q344,683 360.5,698 Q377,713 377,742"/> 
            <glyph glyph-name="Æ" unicode="&#xC6;" horiz-adv-x="876" d=" M464,0 L464,190 L177,190 Q151,142 125.5,95 Q100,48 76,0 L6,0 Q60,107 113.5,201 Q167,295 220,379.5 Q273,464 326,541.5 Q379,619 433,693 L850,693 L850,634 L532,634 L532,393 L814,393 L814,335 L532,335 L532,59 L876,59 L876,0 M464,637 Q395,544 332,447.5 Q269,351 210,248 L464,248"/> 
            <glyph glyph-name="Ç" unicode="&#xC7;" horiz-adv-x="581" d=" M364,-36 Q392,-48 408.5,-65.5 Q425,-83 425,-112 Q425,-124 421,-137.5 Q417,-151 406,-162 Q395,-173 376,-180 Q357,-187 327,-187 Q307,-187 286,-183.5 Q265,-180 256,-175 L264,-132 Q275,-137 289,-139 Q303,-141 323,-141 Q364,-141 364,-112 Q364,-95 350,-86 Q336,-77 306,-65 Q310,-54 316,-39.5 Q322,-25 329,-11 Q271,-3 222,24 Q173,51 137.5,96.5 Q102,142 82,204.5 Q62,267 62,347 Q62,434 88.5,501.5 Q115,569 159,615 Q203,661 261,684.5 Q319,708 382,708 Q421,708 453,703 Q485,698 509,690.5 Q533,683 550,675.5 Q567,668 576,662 L554,603 Q529,618 490.5,632.5 Q452,647 395,647 Q330,647 281.5,625 Q233,603 200,563 Q167,523 150.5,468 Q134,413 134,346 Q134,277 150.5,221.5 Q167,166 199,127 Q231,88 277.5,67 Q324,46 384,46 Q450,46 494.5,58.5 Q539,71 562,84 L581,26 Q574,21 557,14.5 Q540,8 514,1 Q488,-6 454,-10.5 Q420,-15 378,-15 L373,-15 Q370,-20 368,-25.5 Q366,-31 364,-36"/> 
            <glyph glyph-name="È" unicode="&#xC8;" horiz-adv-x="516" d=" M90,0 L90,693 L490,693 L490,634 L158,634 L158,393 L454,393 L454,335 L158,335 L158,59 L516,59 L516,0 M198,929 L356,777 L323,739 L152,878"/> 
            <glyph glyph-name="É" unicode="&#xC9;" horiz-adv-x="516" d=" M90,0 L90,693 L490,693 L490,634 L158,634 L158,393 L454,393 L454,335 L158,335 L158,59 L516,59 L516,0 M428,878 L257,739 L224,777 L382,929"/> 
            <glyph glyph-name="Ê" unicode="&#xCA;" horiz-adv-x="516" d=" M90,0 L90,693 L490,693 L490,634 L158,634 L158,393 L454,393 L454,335 L158,335 L158,59 L516,59 L516,0 M186,740 L158,771 L290,918 L422,771 L394,740 L290,836"/> 
            <glyph glyph-name="Ë" unicode="&#xCB;" horiz-adv-x="516" d=" M90,0 L90,693 L490,693 L490,634 L158,634 L158,393 L454,393 L454,335 L158,335 L158,59 L516,59 L516,0 M250,829 Q250,807 237,794 Q224,781 204,781 Q184,781 171,794 Q158,807 158,829 Q158,851 171,864 Q184,877 204,877 Q224,877 237,864 Q250,851 250,829 M422,829 Q422,807 409,794 Q396,781 376,781 Q356,781 343,794 Q330,807 330,829 Q330,851 343,864 Q356,877 376,877 Q396,877 409,864 Q422,851 422,829"/> 
            <glyph glyph-name="Ì" unicode="&#xCC;" horiz-adv-x="191" d=" M90,693 L158,693 L158,0 L90,0 M65569,929 L65727,777 L65694,739 L65523,878"/> 
            <glyph glyph-name="Í" unicode="&#xCD;" horiz-adv-x="263" d=" M90,693 L158,693 L158,0 L90,0 M65799,878 L65628,739 L65595,777 L65753,929"/> 
            <glyph glyph-name="Î" unicode="&#xCE;" horiz-adv-x="257" d=" M90,693 L158,693 L158,0 L90,0 M65557,740 L65529,771 L65661,918 L65793,771 L65765,740 L65661,836"/> 
            <glyph glyph-name="Ï" unicode="&#xCF;" horiz-adv-x="257" d=" M90,693 L158,693 L158,0 L90,0 M65621,829 Q65621,807 65608,794 Q65595,781 65575,781 Q65555,781 65542,794 Q65529,807 65529,829 Q65529,851 65542,864 Q65555,877 65575,877 Q65595,877 65608,864 Q65621,851 65621,829 M65793,829 Q65793,807 65780,794 Q65767,781 65747,781 Q65727,781 65714,794 Q65701,807 65701,829 Q65701,851 65714,864 Q65727,877 65747,877 Q65767,877 65780,864 Q65793,851 65793,829"/> 
            <glyph glyph-name="Ð" unicode="&#xD0;" horiz-adv-x="654" d=" M654,347 Q654,258 626,192 Q598,126 547.5,82 Q497,38 427,16 Q357,-6 273,-6 Q231,-6 185,-1.5 Q139,3 104,12 L104,335 L24,335 L24,390 L104,390 L104,680 Q139,690 185,694.5 Q231,699 273,699 Q357,699 427,677 Q497,655 547.5,611 Q598,567 626,501 Q654,435 654,347 M172,60 Q178,59 202.5,56 Q227,53 281,53 Q356,53 412,73.5 Q468,94 506,132 Q544,170 563,224.5 Q582,279 582,347 Q582,415 563,469 Q544,523 506,561 Q468,599 412,619.5 Q356,640 281,640 Q227,640 202.5,637 Q178,634 172,633 L172,390 L304,390 L304,335 L172,335"/> 
            <glyph glyph-name="Ñ" unicode="&#xD1;" horiz-adv-x="619" d=" M562,0 Q543,35 513.5,82 Q484,129 449,182.5 Q414,236 375,292.5 Q336,349 297.5,402.5 Q259,456 222.5,503 Q186,550 157,584 L157,0 L90,0 L90,693 L144,693 Q195,636 253.5,561.5 Q312,487 368,409.5 Q424,332 472.5,258 Q521,184 552,129 L552,693 L619,693 L619,0 M417,785 Q395,785 377,792 Q359,799 342,807 Q323,817 311,820.5 Q299,824 289,824 Q268,824 256,810 Q244,796 234,779 L196,797 Q201,809 209.5,823 Q218,837 229.5,849 Q241,861 256.5,869 Q272,877 292,877 Q314,877 332,870 Q350,863 367,855 Q386,845 398,841.5 Q410,838 420,838 Q441,838 453,852 Q465,866 475,883 L513,865 Q508,853 499.5,839 Q491,825 479.5,813 Q468,801 452.5,793 Q437,785 417,785"/> 
            <glyph glyph-name="Ò" unicode="&#xD2;" horiz-adv-x="712" d=" M712,347 Q712,258 686,190 Q660,122 615.5,76.5 Q571,31 512,8 Q453,-15 387,-15 Q321,-15 262,8 Q203,31 158.5,76.5 Q114,122 88,190 Q62,258 62,347 Q62,436 88,503.5 Q114,571 158.5,616.5 Q203,662 262,685 Q321,708 387,708 Q453,708 512,685 Q571,662 615.5,616.5 Q660,571 686,503.5 Q712,436 712,347 M640,347 Q640,417 622,472.5 Q604,528 571,567 Q538,606 491.5,626.5 Q445,647 387,647 Q329,647 282.5,626.5 Q236,606 203,567 Q170,528 152,472.5 Q134,417 134,347 Q134,277 152,221.5 Q170,166 203,127 Q236,88 282.5,67 Q329,46 387,46 Q445,46 491.5,67 Q538,88 571,127 Q604,166 622,221.5 Q640,277 640,347 M295,929 L453,777 L420,739 L249,878"/> 
            <glyph glyph-name="Ó" unicode="&#xD3;" horiz-adv-x="712" d=" M712,347 Q712,258 686,190 Q660,122 615.5,76.5 Q571,31 512,8 Q453,-15 387,-15 Q321,-15 262,8 Q203,31 158.5,76.5 Q114,122 88,190 Q62,258 62,347 Q62,436 88,503.5 Q114,571 158.5,616.5 Q203,662 262,685 Q321,708 387,708 Q453,708 512,685 Q571,662 615.5,616.5 Q660,571 686,503.5 Q712,436 712,347 M640,347 Q640,417 622,472.5 Q604,528 571,567 Q538,606 491.5,626.5 Q445,647 387,647 Q329,647 282.5,626.5 Q236,606 203,567 Q170,528 152,472.5 Q134,417 134,347 Q134,277 152,221.5 Q170,166 203,127 Q236,88 282.5,67 Q329,46 387,46 Q445,46 491.5,67 Q538,88 571,127 Q604,166 622,221.5 Q640,277 640,347 M525,878 L354,739 L321,777 L479,929"/> 
            <glyph glyph-name="Ô" unicode="&#xD4;" horiz-adv-x="712" d=" M712,347 Q712,258 686,190 Q660,122 615.5,76.5 Q571,31 512,8 Q453,-15 387,-15 Q321,-15 262,8 Q203,31 158.5,76.5 Q114,122 88,190 Q62,258 62,347 Q62,436 88,503.5 Q114,571 158.5,616.5 Q203,662 262,685 Q321,708 387,708 Q453,708 512,685 Q571,662 615.5,616.5 Q660,571 686,503.5 Q712,436 712,347 M640,347 Q640,417 622,472.5 Q604,528 571,567 Q538,606 491.5,626.5 Q445,647 387,647 Q329,647 282.5,626.5 Q236,606 203,567 Q170,528 152,472.5 Q134,417 134,347 Q134,277 152,221.5 Q170,166 203,127 Q236,88 282.5,67 Q329,46 387,46 Q445,46 491.5,67 Q538,88 571,127 Q604,166 622,221.5 Q640,277 640,347 M283,740 L255,771 L387,918 L519,771 L491,740 L387,836"/> 
            <glyph glyph-name="Õ" unicode="&#xD5;" horiz-adv-x="712" d=" M712,347 Q712,258 686,190 Q660,122 615.5,76.5 Q571,31 512,8 Q453,-15 387,-15 Q321,-15 262,8 Q203,31 158.5,76.5 Q114,122 88,190 Q62,258 62,347 Q62,436 88,503.5 Q114,571 158.5,616.5 Q203,662 262,685 Q321,708 387,708 Q453,708 512,685 Q571,662 615.5,616.5 Q660,571 686,503.5 Q712,436 712,347 M640,347 Q640,417 622,472.5 Q604,528 571,567 Q538,606 491.5,626.5 Q445,647 387,647 Q329,647 282.5,626.5 Q236,606 203,567 Q170,528 152,472.5 Q134,417 134,347 Q134,277 152,221.5 Q170,166 203,127 Q236,88 282.5,67 Q329,46 387,46 Q445,46 491.5,67 Q538,88 571,127 Q604,166 622,221.5 Q640,277 640,347 M450,785 Q428,785 410,792 Q392,799 375,807 Q356,817 344,820.5 Q332,824 322,824 Q301,824 289,810 Q277,796 267,779 L229,797 Q234,809 242.5,823 Q251,837 262.5,849 Q274,861 289.5,869 Q305,877 325,877 Q347,877 365,870 Q383,863 400,855 Q419,845 431,841.5 Q443,838 453,838 Q474,838 486,852 Q498,866 508,883 L546,865 Q541,853 532.5,839 Q524,825 512.5,813 Q501,801 485.5,793 Q470,785 450,785"/> 
            <glyph glyph-name="Ö" unicode="&#xD6;" horiz-adv-x="712" d=" M712,347 Q712,258 686,190 Q660,122 615.5,76.5 Q571,31 512,8 Q453,-15 387,-15 Q321,-15 262,8 Q203,31 158.5,76.5 Q114,122 88,190 Q62,258 62,347 Q62,436 88,503.5 Q114,571 158.5,616.5 Q203,662 262,685 Q321,708 387,708 Q453,708 512,685 Q571,662 615.5,616.5 Q660,571 686,503.5 Q712,436 712,347 M640,347 Q640,417 622,472.5 Q604,528 571,567 Q538,606 491.5,626.5 Q445,647 387,647 Q329,647 282.5,626.5 Q236,606 203,567 Q170,528 152,472.5 Q134,417 134,347 Q134,277 152,221.5 Q170,166 203,127 Q236,88 282.5,67 Q329,46 387,46 Q445,46 491.5,67 Q538,88 571,127 Q604,166 622,221.5 Q640,277 640,347 M347,829 Q347,807 334,794 Q321,781 301,781 Q281,781 268,794 Q255,807 255,829 Q255,851 268,864 Q281,877 301,877 Q321,877 334,864 Q347,851 347,829 M519,829 Q519,807 506,794 Q493,781 473,781 Q453,781 440,794 Q427,807 427,829 Q427,851 440,864 Q453,877 473,877 Q493,877 506,864 Q519,851 519,829"/> 
            <glyph glyph-name="×" unicode="&#xD7;" horiz-adv-x="474" d=" M129,486 L282,332 L435,486 L474,447 L320,294 L474,141 L435,102 L282,256 L129,102 L90,141 L244,294 L90,447"/> 
            <glyph glyph-name="Ø" unicode="&#xD8;" horiz-adv-x="712" d=" M712,347 Q712,258 686,190 Q660,122 615.5,76.5 Q571,31 512,8 Q453,-15 387,-15 Q333,-15 284.5,0 Q236,15 194,46 L133,-34 L85,2 L150,86 Q108,131 85,196.5 Q62,262 62,347 Q62,436 88,503.5 Q114,571 158.5,616.5 Q203,662 262,685 Q321,708 387,708 Q441,708 490.5,692.5 Q540,677 582,645 L646,728 L694,692 L626,604 Q666,559 689,495 Q712,431 712,347 M134,347 Q134,283 149,230.5 Q164,178 192,140 L543,594 Q478,647 387,647 Q329,647 282.5,626.5 Q236,606 203,567 Q170,528 152,472.5 Q134,417 134,347 M640,347 Q640,410 625.5,461 Q611,512 584,550 L233,96 Q295,46 387,46 Q445,46 491.5,67 Q538,88 571,127 Q604,166 622,221.5 Q640,277 640,347"/> 
            <glyph glyph-name="Ù" unicode="&#xD9;" horiz-adv-x="593" d=" M340,-15 Q271,-15 222.5,6 Q174,27 144,64 Q114,101 100.5,150.5 Q87,200 87,257 L87,693 L155,693 L155,266 Q155,209 168.5,167.5 Q182,126 206,99 Q230,72 264,59 Q298,46 340,46 Q382,46 416,59 Q450,72 474,99 Q498,126 511.5,167.5 Q525,209 525,266 L525,693 L593,693 L593,257 Q593,200 579.5,150.5 Q566,101 536,64 Q506,27 457.5,6 Q409,-15 340,-15 M248,929 L406,777 L373,739 L202,878"/> 
            <glyph glyph-name="Ú" unicode="&#xDA;" horiz-adv-x="593" d=" M340,-15 Q271,-15 222.5,6 Q174,27 144,64 Q114,101 100.5,150.5 Q87,200 87,257 L87,693 L155,693 L155,266 Q155,209 168.5,167.5 Q182,126 206,99 Q230,72 264,59 Q298,46 340,46 Q382,46 416,59 Q450,72 474,99 Q498,126 511.5,167.5 Q525,209 525,266 L525,693 L593,693 L593,257 Q593,200 579.5,150.5 Q566,101 536,64 Q506,27 457.5,6 Q409,-15 340,-15 M478,878 L307,739 L274,777 L432,929"/> 
            <glyph glyph-name="Û" unicode="&#xDB;" horiz-adv-x="593" d=" M340,-15 Q271,-15 222.5,6 Q174,27 144,64 Q114,101 100.5,150.5 Q87,200 87,257 L87,693 L155,693 L155,266 Q155,209 168.5,167.5 Q182,126 206,99 Q230,72 264,59 Q298,46 340,46 Q382,46 416,59 Q450,72 474,99 Q498,126 511.5,167.5 Q525,209 525,266 L525,693 L593,693 L593,257 Q593,200 579.5,150.5 Q566,101 536,64 Q506,27 457.5,6 Q409,-15 340,-15 M236,740 L208,771 L340,918 L472,771 L444,740 L340,836"/> 
            <glyph glyph-name="Ü" unicode="&#xDC;" horiz-adv-x="593" d=" M340,-15 Q271,-15 222.5,6 Q174,27 144,64 Q114,101 100.5,150.5 Q87,200 87,257 L87,693 L155,693 L155,266 Q155,209 168.5,167.5 Q182,126 206,99 Q230,72 264,59 Q298,46 340,46 Q382,46 416,59 Q450,72 474,99 Q498,126 511.5,167.5 Q525,209 525,266 L525,693 L593,693 L593,257 Q593,200 579.5,150.5 Q566,101 536,64 Q506,27 457.5,6 Q409,-15 340,-15 M300,829 Q300,807 287,794 Q274,781 254,781 Q234,781 221,794 Q208,807 208,829 Q208,851 221,864 Q234,877 254,877 Q274,877 287,864 Q300,851 300,829 M472,829 Q472,807 459,794 Q446,781 426,781 Q406,781 393,794 Q380,807 380,829 Q380,851 393,864 Q406,877 426,877 Q446,877 459,864 Q472,851 472,829"/> 
            <glyph glyph-name="Ý" unicode="&#xDD;" horiz-adv-x="559" d=" M251,0 L251,285 Q180,394 120.5,495.5 Q61,597 10,693 L89,693 Q131,605 181.5,514.5 Q232,424 287,342 Q340,424 391,514.5 Q442,605 485,693 L559,693 Q506,598 447,495.5 Q388,393 319,287 L319,0 M423,878 L252,739 L219,777 L377,929"/> 
            <glyph glyph-name="Þ" unicode="&#xDE;" horiz-adv-x="556" d=" M158,570 Q175,572 206.5,574 Q238,576 263,576 Q411,576 483.5,519.5 Q556,463 556,361 Q556,302 535,260.5 Q514,219 475,193.5 Q436,168 379.5,156.5 Q323,145 252,145 L158,145 L158,0 L90,0 L90,693 L158,693 M266,517 Q230,517 202.5,515 Q175,513 158,511 L158,204 L244,204 Q299,204 343.5,210.5 Q388,217 419.5,234.5 Q451,252 468,283 Q485,314 485,362 Q485,408 466.5,438 Q448,468 417.5,485.5 Q387,503 347.5,510 Q308,517 266,517"/> 
            <glyph glyph-name="ß" unicode="&#xDF;" horiz-adv-x="562" d=" M475,619 Q475,593 466.5,571.5 Q458,550 445.5,533 Q433,516 419,502 Q405,488 395,478 Q381,464 371.5,453.5 Q362,443 356,434 Q350,425 347.5,416 Q345,407 345,396 Q345,382 351.5,371 Q358,360 368.5,352 Q379,344 392,337.5 Q405,331 418,325 Q448,311 474.5,296 Q501,281 520.5,261 Q540,241 551,213 Q562,185 562,145 Q562,70 511,29 Q460,-12 369,-12 Q320,-12 285,-1.5 Q250,9 240,14 L254,74 Q262,69 292.5,57 Q323,45 381,45 Q435,45 465,72 Q495,99 495,145 Q495,167 489.5,183.5 Q484,200 471,214 Q458,228 438,240.5 Q418,253 390,268 Q357,285 335.5,298 Q314,311 301.5,324.5 Q289,338 284,353 Q279,368 279,390 Q279,424 298.5,450 Q318,476 344,503 Q359,519 371.5,531.5 Q384,544 392.5,557 Q401,570 405.5,584 Q410,598 410,616 Q410,661 379,689.5 Q348,718 295,718 Q218,718 184.5,675 Q151,632 151,560 L151,0 L86,0 L86,564 Q86,612 100,651.5 Q114,691 140.5,718.5 Q167,746 204,761 Q241,776 287,776 Q385,776 430,732.5 Q475,689 475,619"/> 
            <glyph glyph-name="à" unicode="&#xE0;" horiz-adv-x="429" d=" M249,47 Q287,47 315.5,49.5 Q344,52 364,56 L364,238 Q353,243 329,248.5 Q305,254 263,254 Q239,254 213,250.5 Q187,247 165,235.5 Q143,224 129,204 Q115,184 115,151 Q115,122 124.5,102 Q134,82 151.5,70 Q169,58 193.5,52.5 Q218,47 249,47 M243,529 Q294,529 329.5,514.5 Q365,500 387,474.5 Q409,449 419,414 Q429,379 429,338 L429,12 Q419,9 400,5.5 Q381,2 356,-2 Q331,-6 300.5,-8.5 Q270,-11 238,-11 Q197,-11 162.5,-2 Q128,7 102.5,26.5 Q77,46 62.5,76.5 Q48,107 48,151 Q48,193 64,223 Q80,253 109,272.5 Q138,292 178,301 Q218,310 265,310 Q279,310 294.5,308.5 Q310,307 324.5,304.5 Q339,302 349.5,299.5 Q360,297 364,295 L364,327 Q364,354 360,379.5 Q356,405 342.5,425.5 Q329,446 304.5,458.5 Q280,471 240,471 Q183,471 155,463 Q127,455 114,450 L105,507 Q122,515 157.5,522 Q193,529 243,529 M168,773 L326,621 L293,583 L122,722"/> 
            <glyph glyph-name="á" unicode="&#xE1;" horiz-adv-x="429" d=" M249,47 Q287,47 315.5,49.5 Q344,52 364,56 L364,238 Q353,243 329,248.5 Q305,254 263,254 Q239,254 213,250.5 Q187,247 165,235.5 Q143,224 129,204 Q115,184 115,151 Q115,122 124.5,102 Q134,82 151.5,70 Q169,58 193.5,52.5 Q218,47 249,47 M243,529 Q294,529 329.5,514.5 Q365,500 387,474.5 Q409,449 419,414 Q429,379 429,338 L429,12 Q419,9 400,5.5 Q381,2 356,-2 Q331,-6 300.5,-8.5 Q270,-11 238,-11 Q197,-11 162.5,-2 Q128,7 102.5,26.5 Q77,46 62.5,76.5 Q48,107 48,151 Q48,193 64,223 Q80,253 109,272.5 Q138,292 178,301 Q218,310 265,310 Q279,310 294.5,308.5 Q310,307 324.5,304.5 Q339,302 349.5,299.5 Q360,297 364,295 L364,327 Q364,354 360,379.5 Q356,405 342.5,425.5 Q329,446 304.5,458.5 Q280,471 240,471 Q183,471 155,463 Q127,455 114,450 L105,507 Q122,515 157.5,522 Q193,529 243,529 M398,722 L227,583 L194,621 L352,773"/> 
            <glyph glyph-name="â" unicode="&#xE2;" horiz-adv-x="429" d=" M249,47 Q287,47 315.5,49.5 Q344,52 364,56 L364,238 Q353,243 329,248.5 Q305,254 263,254 Q239,254 213,250.5 Q187,247 165,235.5 Q143,224 129,204 Q115,184 115,151 Q115,122 124.5,102 Q134,82 151.5,70 Q169,58 193.5,52.5 Q218,47 249,47 M243,529 Q294,529 329.5,514.5 Q365,500 387,474.5 Q409,449 419,414 Q429,379 429,338 L429,12 Q419,9 400,5.5 Q381,2 356,-2 Q331,-6 300.5,-8.5 Q270,-11 238,-11 Q197,-11 162.5,-2 Q128,7 102.5,26.5 Q77,46 62.5,76.5 Q48,107 48,151 Q48,193 64,223 Q80,253 109,272.5 Q138,292 178,301 Q218,310 265,310 Q279,310 294.5,308.5 Q310,307 324.5,304.5 Q339,302 349.5,299.5 Q360,297 364,295 L364,327 Q364,354 360,379.5 Q356,405 342.5,425.5 Q329,446 304.5,458.5 Q280,471 240,471 Q183,471 155,463 Q127,455 114,450 L105,507 Q122,515 157.5,522 Q193,529 243,529 M156,584 L128,615 L260,762 L392,615 L364,584 L260,680"/> 
            <glyph glyph-name="ã" unicode="&#xE3;" horiz-adv-x="429" d=" M249,47 Q287,47 315.5,49.5 Q344,52 364,56 L364,238 Q353,243 329,248.5 Q305,254 263,254 Q239,254 213,250.5 Q187,247 165,235.5 Q143,224 129,204 Q115,184 115,151 Q115,122 124.5,102 Q134,82 151.5,70 Q169,58 193.5,52.5 Q218,47 249,47 M243,529 Q294,529 329.5,514.5 Q365,500 387,474.5 Q409,449 419,414 Q429,379 429,338 L429,12 Q419,9 400,5.5 Q381,2 356,-2 Q331,-6 300.5,-8.5 Q270,-11 238,-11 Q197,-11 162.5,-2 Q128,7 102.5,26.5 Q77,46 62.5,76.5 Q48,107 48,151 Q48,193 64,223 Q80,253 109,272.5 Q138,292 178,301 Q218,310 265,310 Q279,310 294.5,308.5 Q310,307 324.5,304.5 Q339,302 349.5,299.5 Q360,297 364,295 L364,327 Q364,354 360,379.5 Q356,405 342.5,425.5 Q329,446 304.5,458.5 Q280,471 240,471 Q183,471 155,463 Q127,455 114,450 L105,507 Q122,515 157.5,522 Q193,529 243,529 M323,629 Q301,629 283,636 Q265,643 248,651 Q229,661 217,664.5 Q205,668 195,668 Q174,668 162,654 Q150,640 140,623 L102,641 Q107,653 115.5,667 Q124,681 135.5,693 Q147,705 162.5,713 Q178,721 198,721 Q220,721 238,714 Q256,707 273,699 Q292,689 304,685.5 Q316,682 326,682 Q347,682 359,696 Q371,710 381,727 L419,709 Q414,697 405.5,683 Q397,669 385.5,657 Q374,645 358.5,637 Q343,629 323,629"/> 
            <glyph glyph-name="ä" unicode="&#xE4;" horiz-adv-x="429" d=" M249,47 Q287,47 315.5,49.5 Q344,52 364,56 L364,238 Q353,243 329,248.5 Q305,254 263,254 Q239,254 213,250.5 Q187,247 165,235.5 Q143,224 129,204 Q115,184 115,151 Q115,122 124.5,102 Q134,82 151.5,70 Q169,58 193.5,52.5 Q218,47 249,47 M243,529 Q294,529 329.5,514.5 Q365,500 387,474.5 Q409,449 419,414 Q429,379 429,338 L429,12 Q419,9 400,5.5 Q381,2 356,-2 Q331,-6 300.5,-8.5 Q270,-11 238,-11 Q197,-11 162.5,-2 Q128,7 102.5,26.5 Q77,46 62.5,76.5 Q48,107 48,151 Q48,193 64,223 Q80,253 109,272.5 Q138,292 178,301 Q218,310 265,310 Q279,310 294.5,308.5 Q310,307 324.5,304.5 Q339,302 349.5,299.5 Q360,297 364,295 L364,327 Q364,354 360,379.5 Q356,405 342.5,425.5 Q329,446 304.5,458.5 Q280,471 240,471 Q183,471 155,463 Q127,455 114,450 L105,507 Q122,515 157.5,522 Q193,529 243,529 M220,673 Q220,651 207,638 Q194,625 174,625 Q154,625 141,638 Q128,651 128,673 Q128,695 141,708 Q154,721 174,721 Q194,721 207,708 Q220,695 220,673 M392,673 Q392,651 379,638 Q366,625 346,625 Q326,625 313,638 Q300,651 300,673 Q300,695 313,708 Q326,721 346,721 Q366,721 379,708 Q392,695 392,673"/> 
            <glyph glyph-name="å" unicode="&#xE5;" horiz-adv-x="429" d=" M249,47 Q287,47 315.5,49.5 Q344,52 364,56 L364,238 Q353,243 329,248.5 Q305,254 263,254 Q239,254 213,250.5 Q187,247 165,235.5 Q143,224 129,204 Q115,184 115,151 Q115,122 124.5,102 Q134,82 151.5,70 Q169,58 193.5,52.5 Q218,47 249,47 M243,529 Q294,529 329.5,514.5 Q365,500 387,474.5 Q409,449 419,414 Q429,379 429,338 L429,12 Q419,9 400,5.5 Q381,2 356,-2 Q331,-6 300.5,-8.5 Q270,-11 238,-11 Q197,-11 162.5,-2 Q128,7 102.5,26.5 Q77,46 62.5,76.5 Q48,107 48,151 Q48,193 64,223 Q80,253 109,272.5 Q138,292 178,301 Q218,310 265,310 Q279,310 294.5,308.5 Q310,307 324.5,304.5 Q339,302 349.5,299.5 Q360,297 364,295 L364,327 Q364,354 360,379.5 Q356,405 342.5,425.5 Q329,446 304.5,458.5 Q280,471 240,471 Q183,471 155,463 Q127,455 114,450 L105,507 Q122,515 157.5,522 Q193,529 243,529 M356,676 Q356,654 348.5,636.5 Q341,619 328,606.5 Q315,594 297.5,587 Q280,580 261,580 Q222,580 193.5,606 Q165,632 165,676 Q165,719 193.5,745 Q222,771 261,771 Q280,771 297.5,764 Q315,757 328,744.5 Q341,732 348.5,714.5 Q356,697 356,676 M318,676 Q318,704 301.5,719.5 Q285,735 261,735 Q237,735 220.5,719.5 Q204,704 204,676 Q204,647 220.5,632 Q237,617 261,617 Q285,617 301.5,632 Q318,647 318,676"/> 
            <glyph glyph-name="æ" unicode="&#xE6;" horiz-adv-x="795" d=" M728,300 Q726,381 690,426 Q654,471 588,471 Q553,471 525.5,457 Q498,443 477.5,419.5 Q457,396 445.5,365 Q434,334 432,300 M252,-11 Q208,-11 170.5,-2 Q133,7 106,26.5 Q79,46 63.5,76.5 Q48,107 48,151 Q48,193 64,223 Q80,253 109,272.5 Q138,292 178,301 Q218,310 265,310 Q279,310 294.5,308.5 Q310,307 324.5,304.5 Q339,302 349.5,299.5 Q360,297 364,295 L364,327 Q364,354 360,379.5 Q356,405 342.5,425.5 Q329,446 304.5,458.5 Q280,471 240,471 Q186,471 156,463.5 Q126,456 113,451 L105,507 Q122,515 158,522 Q194,529 243,529 Q314,529 354.5,502.5 Q395,476 412,431 Q445,480 491,504.5 Q537,529 587,529 Q682,529 738.5,467 Q795,405 795,276 Q795,268 794.5,260 Q794,252 793,245 L430,245 Q433,150 477,99 Q521,48 617,48 Q670,48 701,58 Q732,68 746,75 L758,19 Q744,11 705.5,0 Q667,-11 615,-11 Q558,-11 514,3 Q470,17 437,49 Q426,40 409.5,29.5 Q393,19 370,10 Q347,1 318,-5 Q289,-11 252,-11 M365,238 Q354,243 329.5,248.5 Q305,254 263,254 Q239,254 213,250.5 Q187,247 165,235.5 Q143,224 129,204 Q115,184 115,151 Q115,122 125,102 Q135,82 153.5,70 Q172,58 197,52.5 Q222,47 252,47 Q314,47 350,63.5 Q386,80 400,93 Q384,119 375,154.5 Q366,190 365,238"/> 
            <glyph glyph-name="ç" unicode="&#xE7;" horiz-adv-x="437" d=" M294,-36 Q322,-48 338.5,-65.5 Q355,-83 355,-112 Q355,-124 351,-137.5 Q347,-151 336,-162 Q325,-173 306,-180 Q287,-187 257,-187 Q237,-187 216,-183.5 Q195,-180 186,-175 L194,-132 Q205,-137 219,-139 Q233,-141 253,-141 Q294,-141 294,-112 Q294,-95 280,-86 Q266,-77 236,-65 Q240,-53 246.5,-37.5 Q253,-22 261,-8 Q160,4 107.5,75 Q55,146 55,257 Q55,318 71.5,368 Q88,418 119,454 Q150,490 194,509.5 Q238,529 293,529 Q335,529 371.5,522 Q408,515 428,504 L411,448 Q391,458 366,464 Q341,470 299,470 Q213,470 168.5,414.5 Q124,359 124,257 Q124,211 134,172.5 Q144,134 166.5,106.5 Q189,79 224.5,63.5 Q260,48 311,48 Q353,48 381.5,57.5 Q410,67 423,74 L437,18 Q420,8 383,-1 Q346,-10 305,-11 Q302,-18 299,-24.5 Q296,-31 294,-36"/> 
            <glyph glyph-name="è" unicode="&#xE8;" horiz-adv-x="489" d=" M55,259 Q55,327 74.5,377.5 Q94,428 125.5,462 Q157,496 197.5,512.5 Q238,529 281,529 Q376,529 432.5,467 Q489,405 489,276 Q489,268 488.5,260 Q488,252 487,245 L124,245 Q127,150 171,99 Q215,48 311,48 Q364,48 395,58 Q426,68 440,75 L452,19 Q438,11 399.5,0 Q361,-11 309,-11 Q241,-11 193,9 Q145,29 114,65 Q83,101 69,150.5 Q55,200 55,259 M422,300 Q420,381 384,426 Q348,471 282,471 Q247,471 219.5,457 Q192,443 171.5,419.5 Q151,396 139.5,365 Q128,334 126,300 M188,773 L346,621 L313,583 L142,722"/> 
            <glyph glyph-name="é" unicode="&#xE9;" horiz-adv-x="489" d=" M55,259 Q55,327 74.5,377.5 Q94,428 125.5,462 Q157,496 197.5,512.5 Q238,529 281,529 Q376,529 432.5,467 Q489,405 489,276 Q489,268 488.5,260 Q488,252 487,245 L124,245 Q127,150 171,99 Q215,48 311,48 Q364,48 395,58 Q426,68 440,75 L452,19 Q438,11 399.5,0 Q361,-11 309,-11 Q241,-11 193,9 Q145,29 114,65 Q83,101 69,150.5 Q55,200 55,259 M422,300 Q420,381 384,426 Q348,471 282,471 Q247,471 219.5,457 Q192,443 171.5,419.5 Q151,396 139.5,365 Q128,334 126,300 M418,722 L247,583 L214,621 L372,773"/> 
            <glyph glyph-name="ê" unicode="&#xEA;" horiz-adv-x="489" d=" M55,259 Q55,327 74.5,377.5 Q94,428 125.5,462 Q157,496 197.5,512.5 Q238,529 281,529 Q376,529 432.5,467 Q489,405 489,276 Q489,268 488.5,260 Q488,252 487,245 L124,245 Q127,150 171,99 Q215,48 311,48 Q364,48 395,58 Q426,68 440,75 L452,19 Q438,11 399.5,0 Q361,-11 309,-11 Q241,-11 193,9 Q145,29 114,65 Q83,101 69,150.5 Q55,200 55,259 M422,300 Q420,381 384,426 Q348,471 282,471 Q247,471 219.5,457 Q192,443 171.5,419.5 Q151,396 139.5,365 Q128,334 126,300 M176,584 L148,615 L280,762 L412,615 L384,584 L280,680"/> 
            <glyph glyph-name="ë" unicode="&#xEB;" horiz-adv-x="489" d=" M55,259 Q55,327 74.5,377.5 Q94,428 125.5,462 Q157,496 197.5,512.5 Q238,529 281,529 Q376,529 432.5,467 Q489,405 489,276 Q489,268 488.5,260 Q488,252 487,245 L124,245 Q127,150 171,99 Q215,48 311,48 Q364,48 395,58 Q426,68 440,75 L452,19 Q438,11 399.5,0 Q361,-11 309,-11 Q241,-11 193,9 Q145,29 114,65 Q83,101 69,150.5 Q55,200 55,259 M422,300 Q420,381 384,426 Q348,471 282,471 Q247,471 219.5,457 Q192,443 171.5,419.5 Q151,396 139.5,365 Q128,334 126,300 M240,673 Q240,651 227,638 Q214,625 194,625 Q174,625 161,638 Q148,651 148,673 Q148,695 161,708 Q174,721 194,721 Q214,721 227,708 Q240,695 240,673 M412,673 Q412,651 399,638 Q386,625 366,625 Q346,625 333,638 Q320,651 320,673 Q320,695 333,708 Q346,721 366,721 Q386,721 399,708 Q412,695 412,673"/> 
            <glyph glyph-name="ì" unicode="&#xEC;" horiz-adv-x="185" d=" M151,0 L86,0 L86,517 L151,517 M283,773 L441,621 L408,583 L237,722"/> 
            <glyph glyph-name="í" unicode="&#xED;" horiz-adv-x="257" d=" M151,0 L86,0 L86,517 L151,517 M513,722 L342,583 L309,621 L467,773"/> 
            <glyph glyph-name="î" unicode="&#xEE;" horiz-adv-x="251" d=" M151,0 L86,0 L86,517 L151,517 M271,584 L243,615 L375,762 L507,615 L479,584 L375,680"/> 
            <glyph glyph-name="ï" unicode="&#xEF;" horiz-adv-x="251" d=" M151,0 L86,0 L86,517 L151,517 M335,673 Q335,651 322,638 Q309,625 289,625 Q269,625 256,638 Q243,651 243,673 Q243,695 256,708 Q269,721 289,721 Q309,721 322,708 Q335,695 335,673 M507,673 Q507,651 494,638 Q481,625 461,625 Q441,625 428,638 Q415,651 415,673 Q415,695 428,708 Q441,721 461,721 Q481,721 494,708 Q507,695 507,673"/> 
            <glyph glyph-name="ð" unicode="&#xF0;" horiz-adv-x="540" d=" M433,634 Q474,571 496,495 Q518,419 518,330 Q518,270 508.5,209 Q499,148 472.5,99 Q446,50 399,19 Q352,-12 277,-12 Q225,-12 184,8.5 Q143,29 114.5,64 Q86,99 70.5,145.5 Q55,192 55,245 Q55,303 72,348 Q89,393 119.5,424 Q150,455 192.5,471 Q235,487 286,487 Q316,487 340.5,481.5 Q365,476 384.5,468 Q404,460 418.5,451 Q433,442 441,435 Q436,477 419,523 Q402,569 373,613 L242,567 L225,612 L343,653 Q302,702 245,737 L288,776 Q355,735 403,675 L523,717 L540,672 M450,331 Q450,340 450,348.5 Q450,357 449,366 Q414,401 375,415 Q336,429 294,429 Q249,429 216.5,414.5 Q184,400 163.5,375.5 Q143,351 133,317.5 Q123,284 123,245 Q123,205 133,169 Q143,133 162.5,106 Q182,79 210.5,63 Q239,47 277,47 Q331,47 364.5,71.5 Q398,96 417,136 Q436,176 443,227 Q450,278 450,331"/> 
            <glyph glyph-name="ñ" unicode="&#xF1;" horiz-adv-x="489" d=" M86,499 Q115,507 164,517 Q213,527 284,527 Q343,527 382.5,510 Q422,493 445.5,461.5 Q469,430 479,386 Q489,342 489,289 L489,0 L424,0 L424,268 Q424,323 416.5,361 Q409,399 391.5,423 Q374,447 345.5,457.5 Q317,468 274,468 Q228,468 194.5,463 Q161,458 151,454 L151,0 L86,0 M350,629 Q328,629 310,636 Q292,643 275,651 Q256,661 244,664.5 Q232,668 222,668 Q201,668 189,654 Q177,640 167,623 L129,641 Q134,653 142.5,667 Q151,681 162.5,693 Q174,705 189.5,713 Q205,721 225,721 Q247,721 265,714 Q283,707 300,699 Q319,689 331,685.5 Q343,682 353,682 Q374,682 386,696 Q398,710 408,727 L446,709 Q441,697 432.5,683 Q424,669 412.5,657 Q401,645 385.5,637 Q370,629 350,629"/> 
            <glyph glyph-name="ò" unicode="&#xF2;" horiz-adv-x="527" d=" M527,258 Q527,197 509.5,147 Q492,97 460.5,62 Q429,27 386,7.5 Q343,-12 291,-12 Q239,-12 196,7.5 Q153,27 121.5,62 Q90,97 72.5,147 Q55,197 55,258 Q55,319 72.5,369 Q90,419 121.5,454.5 Q153,490 196,509.5 Q239,529 291,529 Q343,529 386,509.5 Q429,490 460.5,454.5 Q492,419 509.5,369 Q527,319 527,258 M458,258 Q458,355 413,412.5 Q368,470 291,470 Q214,470 169,412.5 Q124,355 124,258 Q124,161 169,104 Q214,47 291,47 Q368,47 413,104 Q458,161 458,258 M199,773 L357,621 L324,583 L153,722"/> 
            <glyph glyph-name="ó" unicode="&#xF3;" horiz-adv-x="527" d=" M527,258 Q527,197 509.5,147 Q492,97 460.5,62 Q429,27 386,7.5 Q343,-12 291,-12 Q239,-12 196,7.5 Q153,27 121.5,62 Q90,97 72.5,147 Q55,197 55,258 Q55,319 72.5,369 Q90,419 121.5,454.5 Q153,490 196,509.5 Q239,529 291,529 Q343,529 386,509.5 Q429,490 460.5,454.5 Q492,419 509.5,369 Q527,319 527,258 M458,258 Q458,355 413,412.5 Q368,470 291,470 Q214,470 169,412.5 Q124,355 124,258 Q124,161 169,104 Q214,47 291,47 Q368,47 413,104 Q458,161 458,258 M429,722 L258,583 L225,621 L383,773"/> 
            <glyph glyph-name="ô" unicode="&#xF4;" horiz-adv-x="527" d=" M527,258 Q527,197 509.5,147 Q492,97 460.5,62 Q429,27 386,7.5 Q343,-12 291,-12 Q239,-12 196,7.5 Q153,27 121.5,62 Q90,97 72.5,147 Q55,197 55,258 Q55,319 72.5,369 Q90,419 121.5,454.5 Q153,490 196,509.5 Q239,529 291,529 Q343,529 386,509.5 Q429,490 460.5,454.5 Q492,419 509.5,369 Q527,319 527,258 M458,258 Q458,355 413,412.5 Q368,470 291,470 Q214,470 169,412.5 Q124,355 124,258 Q124,161 169,104 Q214,47 291,47 Q368,47 413,104 Q458,161 458,258 M187,584 L159,615 L291,762 L423,615 L395,584 L291,680"/> 
            <glyph glyph-name="õ" unicode="&#xF5;" horiz-adv-x="527" d=" M527,258 Q527,197 509.5,147 Q492,97 460.5,62 Q429,27 386,7.5 Q343,-12 291,-12 Q239,-12 196,7.5 Q153,27 121.5,62 Q90,97 72.5,147 Q55,197 55,258 Q55,319 72.5,369 Q90,419 121.5,454.5 Q153,490 196,509.5 Q239,529 291,529 Q343,529 386,509.5 Q429,490 460.5,454.5 Q492,419 509.5,369 Q527,319 527,258 M458,258 Q458,355 413,412.5 Q368,470 291,470 Q214,470 169,412.5 Q124,355 124,258 Q124,161 169,104 Q214,47 291,47 Q368,47 413,104 Q458,161 458,258 M354,629 Q332,629 314,636 Q296,643 279,651 Q260,661 248,664.5 Q236,668 226,668 Q205,668 193,654 Q181,640 171,623 L133,641 Q138,653 146.5,667 Q155,681 166.5,693 Q178,705 193.5,713 Q209,721 229,721 Q251,721 269,714 Q287,707 304,699 Q323,689 335,685.5 Q347,682 357,682 Q378,682 390,696 Q402,710 412,727 L450,709 Q445,697 436.5,683 Q428,669 416.5,657 Q405,645 389.5,637 Q374,629 354,629"/> 
            <glyph glyph-name="ö" unicode="&#xF6;" horiz-adv-x="527" d=" M527,258 Q527,197 509.5,147 Q492,97 460.5,62 Q429,27 386,7.5 Q343,-12 291,-12 Q239,-12 196,7.5 Q153,27 121.5,62 Q90,97 72.5,147 Q55,197 55,258 Q55,319 72.5,369 Q90,419 121.5,454.5 Q153,490 196,509.5 Q239,529 291,529 Q343,529 386,509.5 Q429,490 460.5,454.5 Q492,419 509.5,369 Q527,319 527,258 M458,258 Q458,355 413,412.5 Q368,470 291,470 Q214,470 169,412.5 Q124,355 124,258 Q124,161 169,104 Q214,47 291,47 Q368,47 413,104 Q458,161 458,258 M251,673 Q251,651 238,638 Q225,625 205,625 Q185,625 172,638 Q159,651 159,673 Q159,695 172,708 Q185,721 205,721 Q225,721 238,708 Q251,695 251,673 M423,673 Q423,651 410,638 Q397,625 377,625 Q357,625 344,638 Q331,651 331,673 Q331,695 344,708 Q357,721 377,721 Q397,721 410,708 Q423,695 423,673"/> 
            <glyph glyph-name="÷" unicode="&#xF7;" horiz-adv-x="508" d=" M281,51 Q261,51 247.5,65 Q234,79 234,100 Q234,122 247.5,136 Q261,150 281,150 Q302,150 315.5,136 Q329,122 329,100 Q329,79 315.5,65 Q302,51 281,51 M281,427 Q261,427 247.5,441 Q234,455 234,477 Q234,498 247.5,512 Q261,526 281,526 Q302,526 315.5,512 Q329,498 329,477 Q329,455 315.5,441 Q302,427 281,427 M56,317 L508,317 L508,261 L56,261"/> 
            <glyph glyph-name="ø" unicode="&#xF8;" horiz-adv-x="527" d=" M527,258 Q527,197 509.5,147 Q492,97 460.5,62 Q429,27 386,7.5 Q343,-12 291,-12 Q211,-12 152,33 L101,-34 L58,-2 L114,70 Q85,105 70,152.5 Q55,200 55,258 Q55,319 72.5,369 Q90,419 121.5,454.5 Q153,490 196,509.5 Q239,529 291,529 Q372,529 432,481 L483,548 L525,517 L469,444 Q497,409 512,362 Q527,315 527,258 M124,258 Q124,178 155,124 L394,432 Q374,450 348,460 Q322,470 291,470 Q214,470 169,412.5 Q124,355 124,258 M458,258 Q458,336 427,390 L190,82 Q231,47 291,47 Q368,47 413,104 Q458,161 458,258"/> 
            <glyph glyph-name="ù" unicode="&#xF9;" horiz-adv-x="483" d=" M483,18 Q454,10 405,0 Q356,-10 285,-10 Q227,-10 188,7 Q149,24 125,55 Q101,86 90.5,130 Q80,174 80,227 L80,517 L145,517 L145,248 Q145,193 153,155 Q161,117 179,93.5 Q197,70 225.5,59.5 Q254,49 295,49 Q341,49 375,54 Q409,59 418,63 L418,517 L483,517 M189,773 L347,621 L314,583 L143,722"/> 
            <glyph glyph-name="ú" unicode="&#xFA;" horiz-adv-x="483" d=" M483,18 Q454,10 405,0 Q356,-10 285,-10 Q227,-10 188,7 Q149,24 125,55 Q101,86 90.5,130 Q80,174 80,227 L80,517 L145,517 L145,248 Q145,193 153,155 Q161,117 179,93.5 Q197,70 225.5,59.5 Q254,49 295,49 Q341,49 375,54 Q409,59 418,63 L418,517 L483,517 M419,722 L248,583 L215,621 L373,773"/> 
            <glyph glyph-name="û" unicode="&#xFB;" horiz-adv-x="483" d=" M483,18 Q454,10 405,0 Q356,-10 285,-10 Q227,-10 188,7 Q149,24 125,55 Q101,86 90.5,130 Q80,174 80,227 L80,517 L145,517 L145,248 Q145,193 153,155 Q161,117 179,93.5 Q197,70 225.5,59.5 Q254,49 295,49 Q341,49 375,54 Q409,59 418,63 L418,517 L483,517 M177,584 L149,615 L281,762 L413,615 L385,584 L281,680"/> 
            <glyph glyph-name="ü" unicode="&#xFC;" horiz-adv-x="483" d=" M483,18 Q454,10 405,0 Q356,-10 285,-10 Q227,-10 188,7 Q149,24 125,55 Q101,86 90.5,130 Q80,174 80,227 L80,517 L145,517 L145,248 Q145,193 153,155 Q161,117 179,93.5 Q197,70 225.5,59.5 Q254,49 295,49 Q341,49 375,54 Q409,59 418,63 L418,517 L483,517 M241,673 Q241,651 228,638 Q215,625 195,625 Q175,625 162,638 Q149,651 149,673 Q149,695 162,708 Q175,721 195,721 Q215,721 228,708 Q241,695 241,673 M413,673 Q413,651 400,638 Q387,625 367,625 Q347,625 334,638 Q321,651 321,673 Q321,695 334,708 Q347,721 367,721 Q387,721 400,708 Q413,695 413,673"/> 
            <glyph glyph-name="ý" unicode="&#xFD;" horiz-adv-x="451" d=" M227,-11 Q194,50 163.5,116 Q133,182 106.5,249.5 Q80,317 58,384.5 Q36,452 20,517 L89,517 Q100,469 117,413.5 Q134,358 155.5,299 Q177,240 203,178 Q229,116 259,56 Q281,118 298,173 Q315,228 329.5,282.5 Q344,337 357.5,394 Q371,451 386,517 L451,517 Q419,372 378,235 Q337,98 289,-16 Q270,-61 250,-93.5 Q230,-126 205.5,-147 Q181,-168 148.5,-178 Q116,-188 72,-188 Q47,-188 26.5,-182 Q6,-176 1,-173 L14,-119 Q18,-122 36.5,-127.5 Q55,-133 75,-133 Q103,-133 125.5,-127 Q148,-121 166,-106.5 Q184,-92 198.5,-69 Q213,-46 227,-11 M386,722 L215,583 L182,621 L340,773"/> 
            <glyph glyph-name="þ" unicode="&#xFE;" horiz-adv-x="528" d=" M151,776 L151,502 Q215,527 278,527 Q334,527 380,508 Q426,489 459,454 Q492,419 510,369 Q528,319 528,257 Q528,198 512.5,148.5 Q497,99 467,63.5 Q437,28 393.5,8 Q350,-12 294,-12 Q243,-12 205.5,2.5 Q168,17 151,30 L151,-185 L86,-185 L86,764 M151,93 Q160,86 173.5,78 Q187,70 205,63 Q223,56 244,51.5 Q265,47 288,47 Q336,47 368.5,63.5 Q401,80 421,108.5 Q441,137 450,175.5 Q459,214 459,257 Q459,358 407.5,413 Q356,468 272,468 Q230,468 196,459 Q162,450 151,445"/> 
            <glyph glyph-name="ÿ" unicode="&#xFF;" horiz-adv-x="451" d=" M227,-11 Q194,50 163.5,116 Q133,182 106.5,249.5 Q80,317 58,384.5 Q36,452 20,517 L89,517 Q100,469 117,413.5 Q134,358 155.5,299 Q177,240 203,178 Q229,116 259,56 Q281,118 298,173 Q315,228 329.5,282.5 Q344,337 357.5,394 Q371,451 386,517 L451,517 Q419,372 378,235 Q337,98 289,-16 Q270,-61 250,-93.5 Q230,-126 205.5,-147 Q181,-168 148.5,-178 Q116,-188 72,-188 Q47,-188 26.5,-182 Q6,-176 1,-173 L14,-119 Q18,-122 36.5,-127.5 Q55,-133 75,-133 Q103,-133 125.5,-127 Q148,-121 166,-106.5 Q184,-92 198.5,-69 Q213,-46 227,-11 M208,673 Q208,651 195,638 Q182,625 162,625 Q142,625 129,638 Q116,651 116,673 Q116,695 129,708 Q142,721 162,721 Q182,721 195,708 Q208,695 208,673 M380,673 Q380,651 367,638 Q354,625 334,625 Q314,625 301,638 Q288,651 288,673 Q288,695 301,708 Q314,721 334,721 Q354,721 367,708 Q380,695 380,673"/> 
            <glyph glyph-name="Ā" unicode="&#x100;" horiz-adv-x="631" d=" M556,0 Q537,51 520,98 Q503,145 487,190 L150,190 Q133,145 116,98 Q99,51 81,0 L10,0 Q50,108 85,201.5 Q120,295 153.5,378.5 Q187,462 220,539 Q253,616 290,693 L350,693 Q387,616 420,539 Q453,462 486.5,378.5 Q520,295 555,201.5 Q590,108 631,0 M318,615 Q280,529 244.5,440 Q209,351 171,248 L466,248 Q428,351 392,440 Q356,529 318,615 M188,805 L188,860 L453,860 L453,805"/> 
            <glyph glyph-name="ā" unicode="&#x101;" horiz-adv-x="429" d=" M249,47 Q287,47 315.5,49.5 Q344,52 364,56 L364,238 Q353,243 329,248.5 Q305,254 263,254 Q239,254 213,250.5 Q187,247 165,235.5 Q143,224 129,204 Q115,184 115,151 Q115,122 124.5,102 Q134,82 151.5,70 Q169,58 193.5,52.5 Q218,47 249,47 M243,529 Q294,529 329.5,514.5 Q365,500 387,474.5 Q409,449 419,414 Q429,379 429,338 L429,12 Q419,9 400,5.5 Q381,2 356,-2 Q331,-6 300.5,-8.5 Q270,-11 238,-11 Q197,-11 162.5,-2 Q128,7 102.5,26.5 Q77,46 62.5,76.5 Q48,107 48,151 Q48,193 64,223 Q80,253 109,272.5 Q138,292 178,301 Q218,310 265,310 Q279,310 294.5,308.5 Q310,307 324.5,304.5 Q339,302 349.5,299.5 Q360,297 364,295 L364,327 Q364,354 360,379.5 Q356,405 342.5,425.5 Q329,446 304.5,458.5 Q280,471 240,471 Q183,471 155,463 Q127,455 114,450 L105,507 Q122,515 157.5,522 Q193,529 243,529 M128,649 L128,704 L393,704 L393,649"/> 
            <glyph glyph-name="Ă" unicode="&#x102;" horiz-adv-x="631" d=" M556,0 Q537,51 520,98 Q503,145 487,190 L150,190 Q133,145 116,98 Q99,51 81,0 L10,0 Q50,108 85,201.5 Q120,295 153.5,378.5 Q187,462 220,539 Q253,616 290,693 L350,693 Q387,616 420,539 Q453,462 486.5,378.5 Q520,295 555,201.5 Q590,108 631,0 M318,615 Q280,529 244.5,440 Q209,351 171,248 L466,248 Q428,351 392,440 Q356,529 318,615 M320,769 Q296,769 273.5,777 Q251,785 233.5,801 Q216,817 206.5,842 Q197,867 198,902 L241,902 Q241,895 243.5,882 Q246,869 254,856.5 Q262,844 277.5,834.5 Q293,825 320,825 Q347,825 362.5,834.5 Q378,844 386,856.5 Q394,869 396.5,882 Q399,895 399,902 L442,902 Q443,867 433.5,842 Q424,817 406.5,801 Q389,785 366.5,777 Q344,769 320,769"/> 
            <glyph glyph-name="ă" unicode="&#x103;" horiz-adv-x="429" d=" M249,47 Q287,47 315.5,49.5 Q344,52 364,56 L364,238 Q353,243 329,248.5 Q305,254 263,254 Q239,254 213,250.5 Q187,247 165,235.5 Q143,224 129,204 Q115,184 115,151 Q115,122 124.5,102 Q134,82 151.5,70 Q169,58 193.5,52.5 Q218,47 249,47 M243,529 Q294,529 329.5,514.5 Q365,500 387,474.5 Q409,449 419,414 Q429,379 429,338 L429,12 Q419,9 400,5.5 Q381,2 356,-2 Q331,-6 300.5,-8.5 Q270,-11 238,-11 Q197,-11 162.5,-2 Q128,7 102.5,26.5 Q77,46 62.5,76.5 Q48,107 48,151 Q48,193 64,223 Q80,253 109,272.5 Q138,292 178,301 Q218,310 265,310 Q279,310 294.5,308.5 Q310,307 324.5,304.5 Q339,302 349.5,299.5 Q360,297 364,295 L364,327 Q364,354 360,379.5 Q356,405 342.5,425.5 Q329,446 304.5,458.5 Q280,471 240,471 Q183,471 155,463 Q127,455 114,450 L105,507 Q122,515 157.5,522 Q193,529 243,529 M260,613 Q236,613 213.5,621 Q191,629 173.5,645 Q156,661 146.5,686 Q137,711 138,746 L181,746 Q181,739 183.5,726 Q186,713 194,700.5 Q202,688 217.5,678.5 Q233,669 260,669 Q287,669 302.5,678.5 Q318,688 326,700.5 Q334,713 336.5,726 Q339,739 339,746 L382,746 Q383,711 373.5,686 Q364,661 346.5,645 Q329,629 306.5,621 Q284,613 260,613"/> 
            <glyph glyph-name="Ą" unicode="&#x104;" horiz-adv-x="635" d=" M539,-15 Q544,-10 548,-6.5 Q552,-3 556,0 Q537,51 520,98 Q503,145 487,190 L150,190 Q133,145 116,98 Q99,51 81,0 L10,0 Q50,108 85,201.5 Q120,295 153.5,378.5 Q187,462 220,539 Q253,616 290,693 L350,693 Q387,616 420,539 Q453,462 486,379 Q519,296 554,203 Q589,110 630,2 Q619,-6 608,-15.5 Q597,-25 585,-38 Q569,-55 559.5,-69.5 Q550,-84 550,-101 Q550,-119 562,-127 Q574,-135 592,-135 Q601,-135 611.5,-133.5 Q622,-132 630,-129 L635,-177 Q627,-180 611.5,-183 Q596,-186 581,-186 Q527,-186 505,-166.5 Q483,-147 483,-116 Q483,-85 500,-60.5 Q517,-36 539,-15 M318,615 Q280,529 244.5,440 Q209,351 171,248 L466,248 Q428,351 392,440 Q356,529 318,615"/> 
            </font>
</defs>
</svg>
